<?xml version="1.0" encoding="utf-8"?>
<!DOCTYPE svg PUBLIC "-//W3C//DTD SVG 1.0//EN" "http://www.w3.org/TR/2001/REC-SVG-20010904/DTD/svg10.dtd">
<svg version="1.0" xmlns="http://www.w3.org/2000/svg" viewBox="0 0 500 500" preserveAspectRatio="xMidYMid meet">
 <g fill="#65a148">
  <path d="M235.75 412.70 c-5.30 -0.35 -15.95 -2 -21.25 -3.25 -1.25 -0.30 -2.90 -0.65 -3.75 -0.75 -0.80 -0.15 -1.95 -0.45 -2.50 -0.70 -0.55 -0.20 -2.10 -0.65 -3.50 -1 -1.35 -0.35 -2.95 -0.80 -3.50 -1 -0.55 -0.25 -2 -0.80 -3.25 -1.20 -12.25 -3.95 -27.95 -11.80 -39.90 -19.95 -35.20 -24 -60.15 -61.55 -68.35 -102.85 -2.55 -12.85 -3.10 -19.65 -2.85 -37 0.65 -48.85 24.20 -94.85 64.65 -126.10 16.50 -12.75 38.35 -23.15 59.70 -28.40 13.55 -3.35 15.90 -3.60 35.95 -3.85 19.70 -0.25 23.10 -0.05 34.30 2.15 26.20 5.15 50.80 16.65 71.60 33.45 6.80 5.45 19.85 18.25 19 18.60 -0.30 0.10 -2 -1 -3.75 -2.50 -10.40 -9.05 -20.90 -15.50 -36.60 -22.60 -10.50 -4.75 -26.20 -8.90 -41 -10.80 -6.55 -0.85 -26.10 -0.90 -32.50 -0.05 -7.60 1 -18.10 2.95 -21.75 4.10 -0.70 0.20 -2.25 0.65 -3.50 1 -1.25 0.30 -2.65 0.80 -3.10 1.05 -0.50 0.25 -1.35 0.45 -1.85 0.45 -0.55 0 -1.15 0.25 -1.30 0.50 -0.15 0.30 -0.85 0.50 -1.50 0.50 -0.65 0 -1.35 0.25 -1.50 0.50 -0.15 0.30 -0.65 0.50 -1 0.50 -1.20 0 -9.75 3.85 -16.65 7.50 -17.45 9.20 -33.10 22.10 -45.30 37.30 -4.55 5.65 -10.20 13.80 -12.25 17.70 -0.65 1.25 -1.55 2.80 -2.05 3.50 -1 1.50 -4.45 8.70 -6 12.50 -0.60 1.50 -1.45 3.50 -1.85 4.40 -2.10 4.75 -6.10 18.45 -7.20 24.60 -1.30 7.15 -1.55 9.20 -2.20 15.25 -1.25 12.75 -0.90 22.70 1.35 36.75 4.95 31.25 19.30 58.75 42.20 81 14 13.55 29.70 23.75 47.95 31 27.75 11.05 59.65 13.10 89.50 5.70 21.75 -5.40 45.10 -17.75 61 -32.30 0.85 -0.80 1.70 -1.40 1.90 -1.40 1.60 0 -13.60 14.85 -21.40 20.95 -11.35 8.85 -24.15 16.65 -34.85 21.25 -4.40 1.85 -5.70 2.40 -6.65 2.80 -4.60 1.85 -13.70 4.95 -16.25 5.50 -0.95 0.25 -3 0.75 -4.50 1.15 -3.70 0.95 -7.10 1.60 -17 3.35 -3.10 0.55 -31.50 1.10 -36.75 0.70z"/>
  <path d="M159.50 326.65 c0 -0.20 0.45 -0.70 1.05 -1.05 0.55 -0.35 2.75 -2.05 4.80 -3.75 2.10 -1.70 6 -4.90 8.65 -7.10 2.70 -2.20 7.65 -6.25 11 -9 3.35 -2.75 6.85 -5.55 7.75 -6.25 1.45 -1.10 9.40 -7.60 19 -15.50 5.15 -4.30 12.95 -10.65 16.25 -13.25 1.70 -1.35 4.20 -3.40 5.50 -4.50 1.25 -1.10 3.80 -3.15 5.55 -4.60 6.10 -4.95 18.70 -15.20 21.70 -17.65 11.80 -9.75 14.10 -11.65 14.85 -12.05 0.75 -0.40 1.40 0.20 3.90 3.40 27.20 35.15 27.20 35.15 27.70 35.15 0.20 0 2 -1.20 4 -2.65 1.95 -1.50 6.15 -4.60 9.30 -6.95 6 -4.40 16.35 -12.05 29.50 -21.80 4.25 -3.20 9.35 -6.95 11.25 -8.35 13.50 -9.95 19.25 -14.35 19.25 -14.65 0 -0.20 -1.25 -1.90 -2.75 -3.80 -1.45 -1.95 -2.60 -3.65 -2.45 -3.85 0.10 -0.20 8.65 -0.40 18.90 -0.45 l18.70 -0.05 -0.25 1.15 c-0.15 0.65 -0.80 3.05 -1.50 5.40 -0.65 2.35 -1.65 5.85 -2.20 7.75 -0.55 1.95 -1.20 4.20 -1.45 5 -0.25 0.85 -0.65 2.30 -0.95 3.25 -2.35 8.45 -3.95 13.25 -4.40 13.25 -0.30 0 -1.80 -1.65 -3.35 -3.60 -1.60 -2 -3.05 -3.65 -3.30 -3.65 -0.25 0 -3.55 2.20 -7.35 4.95 -7.95 5.65 -27.60 19.55 -39.90 28.25 -4.65 3.30 -9.95 7 -11.75 8.30 -1.80 1.30 -7.20 5.10 -12 8.50 -4.80 3.40 -11.35 8.05 -14.60 10.35 -3.20 2.30 -6.10 4.25 -6.50 4.40 -0.40 0.10 -3.25 -3.25 -7.45 -8.90 -6 -8 -23.70 -31.20 -24.30 -31.85 -0.10 -0.10 -0.70 0.10 -1.30 0.50 -1.05 0.65 -34.95 21.05 -83.85 50.45 -11.95 7.20 -22.35 13.55 -23.05 14.05 -1.55 1.10 -3.95 1.80 -3.95 1.15z"/>
 </g>
 <g fill="#8c8c8d">
  <path d="M246.90 369.50 c-3.20 -0.20 -6.05 -0.55 -6.35 -0.70 -0.40 -0.25 -0.55 -12.15 -0.55 -40.75 0 -37.85 0.05 -40.45 0.90 -41.15 1.45 -1.30 28.65 -17.45 29.10 -17.30 0.20 0.10 2.40 2.80 4.80 6 2.45 3.20 5.80 7.60 7.45 9.75 1.65 2.15 6.30 8.25 10.40 13.55 l7.35 9.65 -0.10 26.05 -0.15 26.10 -3 1.20 c-1.65 0.65 -3.65 1.40 -4.50 1.60 -0.80 0.25 -3.40 1 -5.75 1.65 -11.95 3.55 -26.75 5.20 -39.60 4.35z"/>
  <path d="M310.35 355.15 c-0.20 -0.15 -0.35 -0.85 -0.35 -1.50 0 -0.80 0.30 -1.15 1 -1.15 0.55 0 1 -0.20 1 -0.50 0 -0.25 0.45 -0.50 1 -0.50 0.55 0 1 -0.20 1 -0.50 0 -0.25 0.35 -0.50 0.75 -0.50 0.40 0 0.75 -0.20 0.75 -0.40 0 -0.25 0.85 -0.85 1.85 -1.40 1.05 -0.50 2.20 -1.25 2.55 -1.55 0.50 -0.50 6.10 -0.65 24.40 -0.65 15.45 0 23.70 -0.15 23.70 -0.50 0 -0.25 0.50 -0.50 1.15 -0.50 1.50 0 1.80 2.25 0.40 3 -0.65 0.30 -9.30 0.50 -24.35 0.50 l-23.35 0 -3.05 1.90 c-3 1.90 -7.70 4.60 -8 4.60 -0.05 0 -0.30 -0.15 -0.45 -0.35z"/>
  <path d="M310 306.55 c0 -1.65 0.25 -2.10 1.65 -3 0.85 -0.55 2.15 -1.40 2.85 -1.90 0.70 -0.50 5.75 -4.10 11.25 -8 5.50 -3.90 10.70 -7.55 11.50 -8.15 0.85 -0.60 6.55 -4.70 12.75 -9.10 6.20 -4.40 12.05 -8.55 13 -9.20 0.95 -0.65 2.75 -1.85 3.95 -2.70 2.45 -1.75 3.85 -1.70 3.25 0.10 -0.40 1.45 -1.10 1.90 -2.80 1.90 -0.95 0 -1.35 0.30 -1.50 1.05 -0.10 0.55 -0.80 1.40 -1.60 1.85 -0.80 0.45 -1.90 1.25 -2.40 1.75 -0.50 0.45 -1.35 0.85 -1.90 0.85 -0.55 0 -1 0.30 -1 0.65 0 0.70 -4.90 4.35 -5.85 4.35 -0.30 0 -0.65 0.35 -0.85 0.75 -0.15 0.40 -0.50 0.75 -0.75 0.75 -0.30 0 -1.10 0.55 -1.85 1.25 -0.75 0.70 -1.65 1.25 -2 1.25 -0.40 0 -0.70 0.25 -0.70 0.50 0 0.30 -0.35 0.50 -0.75 0.50 -0.40 0 -0.75 0.20 -0.75 0.50 0 0.45 -5.60 4.50 -6.20 4.50 -0.20 0 -0.75 0.45 -1.30 1 -0.55 0.55 -1.45 1 -2 1 -0.55 0 -1 0.30 -1 0.65 0 0.70 -4.90 4.35 -5.85 4.35 -0.30 0 -0.65 0.35 -0.85 0.75 -0.15 0.40 -0.50 0.75 -0.75 0.75 -0.25 0 -1.25 0.70 -2.15 1.50 -0.90 0.85 -2.15 1.65 -2.75 1.80 -0.65 0.20 -1.15 0.50 -1.15 0.75 0 0.35 -5.65 4.45 -6.15 4.45 -0.65 0 -3.35 3 -3.35 3.70 0 0.45 -0.40 0.80 -1 0.80 -0.85 0 -1 -0.35 -1 -1.95z"/>
  <path d="M310.25 259.05 c-0.40 -1.30 0.20 -2.55 1.30 -2.55 0.50 0 0.95 -0.35 0.95 -0.75 0 -0.40 0.30 -0.75 0.70 -0.75 0.40 0 0.80 -0.35 1 -0.75 0.15 -0.40 0.75 -0.75 1.30 -0.75 0.55 0 1 -0.35 1 -0.75 0 -0.85 1.50 -1.75 2.95 -1.75 0.65 0 1.05 -0.30 1.05 -0.80 0 -1 1.40 -2.15 2.65 -2.20 0.45 0 0.85 -0.35 0.85 -0.75 0 -0.40 0.30 -0.75 0.70 -0.75 0.40 0 0.80 -0.35 1 -0.75 0.15 -0.40 0.75 -0.75 1.30 -0.75 0.55 0 1 -0.35 1 -0.75 0 -0.40 0.35 -0.75 0.75 -0.75 0.40 0 0.75 -0.20 0.75 -0.50 0 -0.25 0.80 -0.50 1.75 -0.50 1.50 0 1.75 -0.15 1.75 -1.15 0 -1.40 0.85 -2.35 2.10 -2.35 0.50 0 0.90 -0.25 0.90 -0.55 0 -0.80 1.55 -1.90 2.65 -1.95 0.45 0 0.85 -0.35 0.85 -0.75 0 -0.40 0.30 -0.75 0.70 -0.75 0.40 0 0.80 -0.35 1 -0.75 0.15 -0.40 0.75 -0.75 1.30 -0.75 0.55 0 1 -0.25 1 -0.55 0 -0.85 1.60 -1.90 2.90 -1.95 0.75 0 1.10 -0.30 1.10 -1 0 -0.55 0.35 -1 0.75 -1 0.40 0 0.75 -0.20 0.75 -0.50 0 -0.25 0.45 -0.50 1 -0.50 0.55 0 1 -0.35 1 -0.75 0 -0.40 0.30 -0.75 0.70 -0.75 0.40 0 0.80 -0.35 1 -0.75 0.15 -0.40 0.75 -0.75 1.30 -0.75 0.55 0 1 -0.25 1 -0.55 0 -0.95 2.20 -2.40 3.60 -2.45 1 0 1.35 -0.30 1.50 -1.10 0.10 -0.65 0.65 -1.35 1.30 -1.65 0.60 -0.25 1.10 -0.65 1.10 -0.85 0 -0.25 0.30 -0.40 0.70 -0.40 0.40 0 0.80 -0.35 1 -0.75 0.15 -0.40 0.65 -0.75 1.15 -0.75 1.25 0 2.15 -2.05 1.45 -3.30 -0.30 -0.50 -0.85 -1.15 -1.15 -1.35 -0.35 -0.20 -0.65 -0.70 -0.65 -1.05 0 -0.40 -0.35 -0.80 -0.75 -1 -0.40 -0.15 -0.75 -0.75 -0.75 -1.30 0 -0.55 -0.30 -1 -0.70 -1 -0.85 0 -2.80 -2.55 -2.80 -3.70 0 -0.45 -0.20 -0.80 -0.50 -0.80 -0.25 0 -0.50 -0.80 -0.50 -1.75 0 -1.65 0.10 -1.75 1.75 -1.75 1.40 0 1.75 0.20 1.75 0.95 0 0.55 -0.30 1.05 -0.70 1.15 -0.75 0.15 1.30 3.10 6.30 9.10 1.55 1.90 2.40 3.35 2.30 4 -0.10 0.70 -4.05 3.95 -12.25 10.05 -24 17.90 -34.35 25.55 -38.40 28.50 -2.25 1.65 -5.25 3.85 -6.65 4.85 -2.25 1.65 -2.60 1.75 -2.85 0.95z"/>
  <path d="M240.25 250.90 c-0.15 -0.65 -0.20 -12.60 -0.15 -26.65 l0.15 -25.50 29.55 -0.15 29.55 -0.10 0.35 2.50 c0.45 3.50 0.30 47.95 -0.20 48.25 -0.20 0.10 -2.25 -2.20 -4.55 -5.15 -2.30 -2.95 -5.65 -7.25 -7.45 -9.60 -1.85 -2.35 -4.75 -6.10 -6.45 -8.35 -1.70 -2.30 -3.25 -4.15 -3.45 -4.15 -0.35 0 -2.20 1.50 -14.15 11.25 -3.35 2.75 -8.15 6.70 -10.70 8.75 -2.50 2.05 -6.30 5.15 -8.40 6.90 -3.60 2.95 -3.85 3.10 -4.10 2z"/>
  <path d="M368 200.05 c0 -1.30 0.20 -1.55 1.15 -1.55 1 0 1.20 0.25 1.10 1.40 -0.05 1 -0.35 1.40 -1.15 1.50 -0.95 0.15 -1.10 -0.05 -1.10 -1.35z"/>
  <path d="M368 180.55 c0 -1.55 0.65 -1.95 1.85 -1.15 0.95 0.60 0.45 2.35 -0.75 2.50 -0.95 0.15 -1.10 -0.10 -1.10 -1.35z"/>
  <path d="M310.10 180.40 c0.25 -1.70 1.90 -1.85 1.90 -0.20 0 1 -0.25 1.30 -1.05 1.30 -0.75 0 -1 -0.25 -0.85 -1.10z"/>
 </g>
 <g fill="#605e5e">
  <path d="M310.60 355.15 c-0.85 -0.30 -0.85 -50.45 0 -50.95 0.35 -0.20 0.40 -0.15 0.20 0.20 -0.75 1.25 0.40 0.50 2.10 -1.25 0.95 -1.05 1.60 -1.55 1.40 -1.15 -0.20 0.40 0 0.30 0.40 -0.20 0.45 -0.55 0.80 -0.80 0.80 -0.50 0 0.25 0.50 -0.10 1.05 -0.80 0.55 -0.70 0.90 -0.90 0.70 -0.50 -0.20 0.40 0.15 0.20 0.75 -0.50 0.60 -0.70 0.95 -0.90 0.75 -0.50 -0.15 0.40 0.25 0.10 0.95 -0.75 0.70 -0.80 1.30 -1.30 1.30 -1.05 0 0.30 0.35 0.05 0.80 -0.50 0.40 -0.50 0.65 -0.60 0.45 -0.20 -0.20 0.40 0.30 0.10 1 -0.75 0.75 -0.80 1.20 -1.15 1 -0.75 -0.15 0.40 0.05 0.30 0.50 -0.25 0.45 -0.55 1 -0.95 1.25 -0.90 0.25 0.10 0.70 -0.30 1 -0.85 0.30 -0.55 0.75 -0.90 1.05 -0.75 0.25 0.20 1.20 -0.40 2.05 -1.35 0.85 -0.90 1.40 -1.30 1.20 -0.90 -0.20 0.40 0.10 0.20 0.70 -0.50 0.60 -0.70 0.95 -0.90 0.75 -0.50 -0.20 0.40 0.15 0.15 0.75 -0.65 0.60 -0.75 1.30 -1.25 1.55 -1.05 0.25 0.15 0.45 0 0.45 -0.25 0 -0.30 0.20 -0.50 0.45 -0.40 0.20 0.05 0.90 -0.45 1.50 -1.15 0.65 -0.70 1 -0.90 0.80 -0.50 -0.20 0.40 0.05 0.30 0.45 -0.20 0.45 -0.55 0.80 -0.80 0.80 -0.50 0 0.25 0.50 -0.10 1.05 -0.80 0.55 -0.70 0.90 -0.90 0.70 -0.50 -0.20 0.40 0.15 0.20 0.75 -0.50 0.60 -0.70 0.95 -0.90 0.75 -0.50 -0.15 0.40 0.25 0.10 0.95 -0.75 0.70 -0.80 1.30 -1.25 1.30 -1 0 0.30 0.25 0.15 0.50 -0.25 0.25 -0.40 0.70 -0.75 0.95 -0.75 0.30 0 0.85 -0.45 1.30 -1 0.45 -0.55 0.70 -0.65 0.50 -0.25 -0.20 0.40 0.05 0.30 0.50 -0.25 0.45 -0.55 1 -1 1.25 -1 0.25 0 0.80 -0.45 1.20 -1 0.45 -0.55 0.80 -0.80 0.80 -0.55 0 0.30 0.35 0.05 0.80 -0.50 0.40 -0.50 0.65 -0.60 0.45 -0.20 -0.20 0.40 0.30 0.10 1 -0.75 0.75 -0.80 1.20 -1.15 1 -0.75 -0.20 0.40 0.15 0.20 0.75 -0.50 0.60 -0.70 0.95 -0.90 0.75 -0.50 -0.20 0.40 0.20 0.10 0.95 -0.75 0.70 -0.80 1.25 -1.30 1.30 -1.05 0 0.30 0.35 0.05 0.80 -0.50 0.40 -0.50 0.60 -0.60 0.45 -0.20 -0.20 0.40 0.25 0.10 1 -0.75 0.70 -0.80 1.20 -1.15 1 -0.75 -0.20 0.40 0.05 0.30 0.45 -0.20 0.45 -0.55 0.80 -0.80 0.80 -0.50 0 0.25 0.50 -0.20 1.15 -0.95 0.60 -0.75 1.50 -1.45 1.95 -1.55 0.50 -0.05 1.20 -0.55 1.60 -1.05 0.70 -0.95 2.30 -0.75 2.30 0.25 0 0.30 -0.20 0.45 -0.45 0.25 -0.30 -0.15 -0.30 0.35 0 1.35 0.25 1 0.45 18.20 0.45 42 0 39.50 -0.05 40.40 -1 40.90 -0.65 0.35 -8.95 0.45 -24.70 0.40 -13.05 -0.10 -23.60 -0.05 -23.50 0.05 0.35 0.35 -1.80 1.60 -2.25 1.30 -0.25 -0.15 -0.65 0 -0.85 0.30 -0.20 0.40 -0.15 0.45 0.20 0.25 0.35 -0.20 0.60 -0.25 0.60 -0.15 0 0.55 -4.55 2.90 -5 2.60 -0.30 -0.20 -0.45 -0.05 -0.40 0.35 0.10 0.40 -0.25 0.60 -1 0.55 -0.65 -0.10 -1.05 0.05 -0.85 0.30 0.35 0.60 -0.30 1 -1.15 0.70z m46.80 -7 c-6.55 -0.10 -17.25 -0.10 -23.75 0 -6.55 0.05 -1.20 0.10 11.85 0.10 13.05 0 18.40 -0.05 11.90 -0.10z"/>
  <path d="M310.30 259.20 c-0.40 -1 -0.40 -78.35 0 -79.40 0.30 -0.70 3.35 -0.80 29.65 -0.80 l29.30 0 0.60 1.25 c0.80 1.80 0.85 19.75 0 19.75 -0.40 0 -0.35 0.20 0.15 0.50 1.25 0.80 -0.50 1.10 -5.20 0.90 -4 -0.15 -4.20 -0.10 -3.45 0.75 0.45 0.45 0.60 0.85 0.35 0.85 -0.25 0 0.10 0.50 0.80 1.15 0.70 0.60 1.05 1 0.75 0.85 -0.30 -0.15 -0.05 0.20 0.60 0.75 0.65 0.60 1.15 1.25 1.15 1.50 0 0.25 0.60 1 1.40 1.65 0.75 0.65 1 1 0.60 0.80 -0.40 -0.25 0.20 0.50 1.40 1.60 1.15 1.15 2.10 2.50 2.10 3.10 0 1.05 -3.35 4.25 -4.05 3.80 -0.20 -0.10 -0.65 0.20 -0.90 0.70 -0.30 0.55 -1.10 1.35 -1.85 1.85 -0.90 0.55 -1.20 0.65 -0.95 0.20 0.20 -0.40 -0.30 0 -1.10 0.85 -0.75 0.85 -1.85 1.85 -2.35 2.25 -0.85 0.60 -0.95 0.60 -0.60 -0.05 0.20 -0.40 -0.15 -0.20 -0.80 0.50 -1.75 1.90 -3.65 3.40 -3.20 2.50 0.20 -0.40 -0.05 -0.25 -0.55 0.35 -1.40 1.70 -4.25 3.65 -4.80 3.30 -0.30 -0.15 -0.35 -0.10 -0.20 0.20 0.15 0.25 -0.40 1 -1.25 1.65 -0.85 0.60 -1.35 0.80 -1.10 0.45 0.20 -0.40 -0.35 0.05 -1.25 0.90 -0.90 0.90 -1.75 1.60 -1.95 1.55 -0.20 -0.05 -1.10 0.60 -2.05 1.50 -0.90 0.90 -1.85 1.50 -2.10 1.35 -0.20 -0.15 -0.65 0.15 -0.90 0.65 -0.30 0.55 -1.10 1.35 -1.85 1.85 -0.85 0.55 -1.20 0.60 -0.90 0.20 0.20 -0.40 -0.55 0.25 -1.75 1.45 -1.15 1.15 -2.30 2 -2.55 1.85 -0.30 -0.15 -0.50 -0.10 -0.50 0.15 0 0.25 -0.85 1.10 -1.85 1.90 -1 0.75 -1.65 1.05 -1.45 0.65 0.25 -0.40 -0.10 -0.15 -0.75 0.55 -1.80 1.95 -3.70 3.40 -3.25 2.50 0.25 -0.45 0.10 -0.40 -0.35 0.10 -0.40 0.50 -0.90 0.70 -1.10 0.50 -0.25 -0.20 -0.25 -0.10 -0.10 0.20 0.35 0.65 -2.45 2.85 -3.15 2.45 -0.25 -0.15 -0.60 0 -0.80 0.30 -0.25 0.40 -0.10 0.50 0.35 0.25 0.40 -0.20 0.15 0.05 -0.55 0.60 -0.65 0.55 -1.35 1 -1.50 0.95 -0.15 -0.05 -1 0.65 -1.95 1.55 -0.95 0.90 -1.80 1.50 -1.95 1.35 -0.15 -0.10 -0.65 0.20 -1.10 0.75 -0.80 0.90 -0.90 0.90 -1.20 0.20z"/>
  <path d="M240.05 249.65 c0 -1.25 0.05 -1.30 0.45 -0.40 0.60 1.35 0.60 1.75 0 1.75 -0.25 0 -0.50 -0.60 -0.45 -1.35z"/>
 </g>
 <g fill="#cacacb">
  <path d="M238.90 412.65 c0.60 -0.10 1.50 -0.10 2 0 0.45 0.15 -0.05 0.25 -1.15 0.20 -1.10 0 -1.50 -0.10 -0.85 -0.20z"/>
  <path d="M231.40 412.15 c0.60 -0.10 1.60 -0.10 2.25 0 0.60 0.10 0.10 0.20 -1.15 0.20 -1.25 0 -1.75 -0.10 -1.10 -0.20z"/>
  <path d="M267.90 391.65 c-1.80 -0.45 -1 -1.65 1.10 -1.65 1.65 0 2 0.15 2 1 0 1 -1 1.20 -3.10 0.65z"/>
  <path d="M282 390.95 c0 -0.80 0.35 -0.95 2 -0.95 1.45 0 2 0.20 2 0.75 0 0.40 -0.30 0.80 -0.60 0.80 -0.35 0.05 -1.25 0.15 -2 0.25 -1.10 0.10 -1.40 -0.05 -1.40 -0.85z"/>
  <path d="M256.50 390.95 c-1.50 -0.25 -3.50 -0.60 -4.35 -0.75 -1.90 -0.30 -2.30 -1.70 -0.50 -1.70 0.60 0 3.40 0.25 6.25 0.60 4.35 0.55 5.10 0.75 5.10 1.50 0 1 -1.75 1.10 -6.50 0.35z"/>
  <path d="M245.90 389.15 c-1.80 -0.45 -1 -1.65 1.10 -1.65 1.65 0 2 0.15 2 1 0 1 -1 1.20 -3.10 0.65z"/>
  <path d="M241.40 388.15 c-1.65 -0.40 -1 -1.65 0.85 -1.65 1.40 0 1.75 0.20 1.75 1 0 1 -0.70 1.15 -2.60 0.65z"/>
  <path d="M254 377.30 c0 -0.80 1.25 -1.20 2.65 -0.90 1.60 0.40 0.95 1.60 -0.90 1.60 -1.20 0 -1.75 -0.25 -1.75 -0.70z"/>
  <path d="M259 377.30 c0 -0.65 1.40 -1.30 2.90 -1.30 0.30 0 0.60 0.45 0.60 1 0 0.80 -0.35 1 -1.75 1 -1.15 0 -1.75 -0.25 -1.75 -0.70z"/>
  <path d="M264 376.75 c0 -0.40 0.30 -0.75 0.65 -0.80 0.30 0 1.10 -0.10 1.75 -0.25 0.85 -0.15 1.10 0.05 1.10 0.80 0 0.80 -0.35 1 -1.75 1 -1.20 0 -1.75 -0.25 -1.75 -0.75z"/>
  <path d="M275 375.30 c0 -0.65 1.40 -1.30 2.90 -1.30 0.30 0 0.60 0.45 0.60 1 0 0.80 -0.35 1 -1.75 1 -1.15 0 -1.75 -0.25 -1.75 -0.70z"/>
  <path d="M287.50 372.30 c0 -0.65 1.40 -1.30 2.90 -1.30 0.30 0 0.60 0.45 0.60 1 0 0.80 -0.35 1 -1.75 1 -1.15 0 -1.75 -0.25 -1.75 -0.70z"/>
  <path d="M365.75 365 c3 -3 5.60 -5.50 5.75 -5.50 0.10 0 -2.25 2.50 -5.25 5.50 -3 3.05 -5.60 5.50 -5.75 5.50 -0.10 0 2.25 -2.45 5.25 -5.50z"/>
  <path d="M248 369.55 l-4.75 -0.35 4 -0.20 c2.20 -0.10 4.90 -0.20 6 -0.30 1.05 -0.05 4.35 0.05 7.25 0.30 4.35 0.30 4.70 0.35 2 0.45 -1.80 0 -4.70 0.15 -6.50 0.25 -1.80 0.10 -5.40 0 -8 -0.15z"/>
  <path d="M241 368.20 c0 -0.45 0.25 -0.70 0.60 -0.60 0.90 0.30 1.05 1.40 0.20 1.40 -0.45 0 -0.80 -0.35 -0.80 -0.80z"/>
  <path d="M268 368.30 c0 -0.75 0.35 -0.80 2.40 -0.50 2.80 0.40 3.35 0.70 1.30 0.70 -0.80 0 -1.95 0.15 -2.55 0.30 -0.85 0.25 -1.15 0.10 -1.15 -0.50z"/>
  <path d="M240.25 328 c0 -22.40 0.05 -31.60 0.10 -20.40 0.10 11.25 0.10 29.55 0 40.80 -0.05 11.20 -0.10 2 -0.10 -20.40z"/>
  <path d="M275 367.15 c0 -0.70 0.55 -0.75 2.50 -0.20 1.15 0.35 1.10 0.40 -0.60 0.60 -1.35 0.20 -1.90 0.05 -1.90 -0.40z"/>
  <path d="M227.40 366.75 c-0.15 -0.15 -1.90 -0.70 -3.95 -1.25 -13.70 -3.60 -26.85 -9.75 -38.20 -17.80 -6.25 -4.45 -7.60 -5.55 -11.55 -9.10 l-3.45 -3.10 0 -2.95 c0 -1.65 0.10 -3.05 0.25 -3.20 0.30 -0.25 22.45 -13.65 37 -22.35 15.75 -9.45 21.05 -12.50 21.55 -12.50 0.25 0 0.45 14.45 0.45 36.25 0 34.80 -0.05 36.25 -0.90 36.25 -0.50 0 -1.05 -0.10 -1.20 -0.25z"/>
  <path d="M280 366.15 c0 -0.70 0.75 -0.80 2.25 -0.20 0.85 0.35 0.75 0.45 -0.65 0.65 -1.10 0.15 -1.60 0.05 -1.60 -0.45z"/>
  <path d="M284 365.20 c0 -0.75 0.30 -0.80 1.75 -0.25 0.85 0.35 0.85 0.40 -0.40 0.65 -0.95 0.20 -1.35 0.05 -1.35 -0.40z"/>
  <path d="M287.50 364.20 c0 -0.80 0.90 -0.90 1.90 -0.25 0.50 0.30 0.35 0.50 -0.60 0.65 -0.90 0.20 -1.30 0.05 -1.30 -0.40z"/>
  <path d="M290.50 363.15 c0 -0.70 0.75 -0.80 2.25 -0.20 0.85 0.35 0.75 0.45 -0.65 0.65 -1.10 0.15 -1.60 0.05 -1.60 -0.45z"/>
  <path d="M193 362.25 c0 -1.50 0.15 -1.50 2.05 -0.40 1.90 1.15 1.85 1.65 -0.30 1.65 -1.55 0 -1.75 -0.15 -1.75 -1.25z"/>
  <path d="M130 360.75 c-1.20 -1.25 -2.10 -2.25 -1.95 -2.25 0.15 0 1.25 1 2.45 2.25 1.20 1.25 2.10 2.25 1.95 2.25 -0.15 0 -1.25 -1 -2.45 -2.25z"/>
  <path d="M298.80 360.25 c-0.15 -0.45 0 -0.75 0.45 -0.75 0.80 0 1 0.80 0.30 1.20 -0.25 0.15 -0.55 -0.05 -0.75 -0.45z"/>
  <path d="M186 358.25 c0 -1.50 0.15 -1.50 2.05 -0.40 1.90 1.15 1.85 1.65 -0.30 1.65 -1.55 0 -1.75 -0.15 -1.75 -1.25z"/>
  <path d="M372.25 357.50 c0.50 -0.55 1.15 -1 1.40 -1 0.30 0 0.10 0.45 -0.40 1 -0.50 0.55 -1.15 1 -1.40 1 -0.30 0 -0.10 -0.45 0.40 -1z"/>
  <path d="M320.50 357.60 c0 -0.40 2.60 -2.10 3.20 -2.10 0.15 0 0.30 0.55 0.30 1.25 0 1.10 -0.20 1.25 -1.75 1.25 -0.95 0 -1.75 -0.20 -1.75 -0.40z"/>
  <path d="M182 355.50 l0 -1.50 1.75 1.10 c2.20 1.45 2.20 1.90 0 1.90 -1.60 0 -1.75 -0.10 -1.75 -1.50z"/>
  <path d="M310.25 331 c0 -13.35 0.05 -18.80 0.10 -12.10 0.10 6.65 0.10 17.55 0 24.25 -0.05 6.65 -0.10 1.20 -0.10 -12.15z"/>
  <path d="M312.55 354.25 c0.15 -0.10 2.30 -1.45 4.85 -3 l4.55 -2.75 23.25 0 c12.75 0 23.50 -0.10 23.90 -0.25 0.55 -0.20 0.65 -7.70 0.50 -42.40 -0.10 -38.20 -0.20 -42.10 -0.90 -42 -0.55 0.05 -0.65 -0.10 -0.30 -0.45 0.30 -0.30 0.90 -0.40 1.30 -0.25 0.65 0.25 0.75 5.20 0.80 42.55 0 41.30 0 42.25 -0.95 42.80 -0.65 0.30 -9.15 0.50 -24.30 0.50 l-23.35 0 -4.45 2.75 c-3.85 2.40 -5.70 3.35 -4.90 2.50z"/>
  <path d="M177.20 352.80 c-0.15 -0.40 -0.20 -1.10 -0.10 -1.55 0.10 -0.65 0.50 -0.50 1.90 0.70 l1.75 1.50 -1.65 0.05 c-0.95 0 -1.75 -0.30 -1.90 -0.70z"/>
  <path d="M169.15 344.90 c-1.95 -2.20 -1.85 -2.65 0.25 -1 1.15 0.95 2.10 1.80 2.10 1.90 0 0.60 -1.45 0.05 -2.35 -0.90z"/>
  <path d="M158.15 327.85 c0.40 -1.25 4.85 -3.50 4.85 -2.45 0 0.30 -1.15 1.10 -2.55 1.75 -1.35 0.70 -2.45 1.05 -2.30 0.70z"/>
  <path d="M170.35 304.85 c-0.45 -5.30 -0.45 -82.75 -0.05 -84.80 l0.35 -1.55 29.30 0.10 29.30 0.15 0.15 20.80 0.10 20.80 -2.40 2.20 c-1.35 1.20 -3.85 3.35 -5.60 4.70 -1.75 1.40 -4.25 3.40 -5.50 4.50 -1.30 1.10 -3.80 3.15 -5.50 4.50 -1.75 1.40 -4.10 3.30 -5.25 4.25 -1.15 0.95 -3.50 2.90 -5.25 4.25 -1.70 1.40 -4.05 3.30 -5.25 4.25 -1.15 0.95 -3.65 3 -5.50 4.50 -1.85 1.50 -4.30 3.55 -5.45 4.50 -1.20 0.95 -3.70 3 -5.55 4.50 -1.90 1.50 -4.40 3.60 -5.50 4.60 l-2.10 1.90 -0.30 -4.15z"/>
  <path d="M283.20 287.15 c-0.75 -1 -1.15 -1.65 -0.80 -1.45 0.65 0.40 2.80 3.30 2.45 3.30 -0.15 0 -0.85 -0.85 -1.65 -1.85z"/>
  <path d="M129.80 271.45 c-0.20 -1.40 -0.25 -2.65 -0.15 -2.80 0.15 -0.10 0.40 0.95 0.60 2.35 0.20 1.40 0.25 2.65 0.10 2.80 -0.10 0.15 -0.35 -0.95 -0.55 -2.35z"/>
  <path d="M128.80 262.95 c-0.20 -2.20 -0.25 -4.15 -0.15 -4.25 0.15 -0.15 0.40 1.55 0.60 3.80 0.20 2.25 0.25 4.15 0.10 4.30 -0.10 0.15 -0.40 -1.60 -0.55 -3.85z"/>
  <path d="M310.25 219.50 c0 -21.85 0.05 -30.80 0.10 -19.85 0.10 10.90 0.10 28.80 0 39.75 -0.05 10.90 -0.10 1.95 -0.10 -19.90z"/>
  <path d="M312.50 258.30 c0 -0.10 0.70 -0.70 1.50 -1.30 0.85 -0.60 1.50 -0.95 1.50 -0.80 0 0.10 -0.65 0.70 -1.50 1.30 -0.80 0.60 -1.50 0.95 -1.50 0.80z"/>
  <path d="M316.50 255.35 c0 -0.15 1.20 -1.10 2.60 -2.20 3.35 -2.45 4.10 -2.90 3.75 -2.30 -0.35 0.60 -6.35 4.80 -6.35 4.50z"/>
  <path d="M86.70 249.50 c0 -3.15 0.05 -4.45 0.15 -2.85 0.10 1.55 0.10 4.15 0 5.75 -0.10 1.55 -0.15 0.25 -0.15 -2.90z"/>
  <path d="M240.25 225 c0 -14.45 0.05 -20.35 0.10 -13.10 0.10 7.20 0.10 19 0 26.25 -0.05 7.20 -0.10 1.30 -0.10 -13.15z"/>
  <path d="M323.70 250.10 c0.40 -0.65 3.30 -2.80 3.30 -2.45 0 0.15 -0.85 0.85 -1.85 1.65 -1 0.75 -1.65 1.15 -1.45 0.80z"/>
  <path d="M244.35 248.05 c0.75 -1.10 1.70 -2 2.05 -2.05 1.10 0 0.65 0.80 -1.45 2.45 l-2 1.65 1.40 -2.05z"/>
  <path d="M298.45 248.70 c-0.50 -0.60 -0.50 -0.75 0.05 -0.60 0.40 0.10 0.85 -0.45 1.05 -1.35 0.35 -1.50 0.35 -1.50 0.40 0.35 0.05 2.10 -0.55 2.75 -1.50 1.60z"/>
  <path d="M327.70 247.10 c0.40 -0.65 3.30 -2.80 3.30 -2.45 0 0.15 -0.85 0.85 -1.85 1.65 -1 0.75 -1.65 1.15 -1.45 0.80z"/>
  <path d="M250.15 243.30 c0.60 -0.95 1.40 -1.75 1.75 -1.80 1.10 0 0.65 0.85 -1.15 2.20 l-1.75 1.35 1.15 -1.75z"/>
  <path d="M331.95 243.85 c0.70 -0.90 2.55 -2.10 2.55 -1.65 0 0.15 -0.75 0.75 -1.60 1.35 -1.20 0.85 -1.45 0.90 -0.95 0.30z"/>
  <path d="M299.75 222.50 c0 -11.70 0.05 -16.45 0.10 -10.65 0.10 5.85 0.10 15.45 0 21.25 -0.05 5.85 -0.10 1.10 -0.10 -10.60z"/>
  <path d="M128.55 239.15 c0 -1.40 0.10 -2.70 0.35 -2.85 0.20 -0.10 0.30 0.70 0.20 1.85 -0.25 3.40 -0.50 3.80 -0.55 1z"/>
  <path d="M335.95 240.85 c0.70 -0.90 2.55 -2.10 2.55 -1.65 0 0.15 -0.75 0.75 -1.60 1.35 -1.20 0.85 -1.45 0.90 -0.95 0.30z"/>
  <path d="M255.35 239.05 c0.75 -1.10 1.70 -2 2.05 -2.05 1.10 0 0.65 0.80 -1.45 2.45 l-2 1.65 1.40 -2.05z"/>
  <path d="M339.50 238.30 c0 -0.10 0.70 -0.70 1.50 -1.30 0.85 -0.60 1.50 -0.95 1.50 -0.80 0 0.10 -0.65 0.70 -1.50 1.30 -0.80 0.60 -1.50 0.95 -1.50 0.80z"/>
  <path d="M87.10 234.50 c0 -0.95 0.10 -1.35 0.25 -0.85 0.10 0.45 0.10 1.25 0 1.75 -0.15 0.45 -0.25 0.05 -0.25 -0.90z"/>
  <path d="M261.15 234.30 c0.60 -0.95 1.40 -1.75 1.75 -1.80 1.10 0 0.65 0.85 -1.15 2.20 l-1.75 1.35 1.15 -1.75z"/>
  <path d="M347.10 232.70 c0.85 -1 6.90 -5.40 6.90 -5.05 0 0.15 -1.75 1.55 -3.85 3.10 -2.15 1.60 -3.50 2.50 -3.05 1.95z"/>
  <path d="M266.35 230.05 c0.75 -1.10 1.70 -2 2.05 -2.05 1.10 0 0.65 0.80 -1.45 2.45 l-2 1.65 1.40 -2.05z"/>
  <path d="M354.95 226.80 c0.65 -0.80 2.55 -2.05 2.55 -1.65 0 0.10 -0.75 0.70 -1.60 1.35 -1.05 0.75 -1.40 0.85 -0.95 0.30z"/>
  <path d="M272.35 225.05 c0.75 -1.15 1.65 -2.05 2 -2.05 1.15 0 0.70 0.90 -1.35 2.50 l-2 1.60 1.35 -2.05z"/>
  <path d="M358.95 223.85 c0.70 -0.90 2.55 -2.10 2.55 -1.65 0 0.15 -0.75 0.75 -1.60 1.35 -1.20 0.85 -1.45 0.90 -0.95 0.30z"/>
  <path d="M362.50 221.30 c0 -0.10 0.70 -0.70 1.50 -1.30 0.85 -0.60 1.50 -0.95 1.50 -0.80 0 0.10 -0.65 0.70 -1.50 1.30 -0.80 0.60 -1.50 0.95 -1.50 0.80z"/>
  <path d="M368.35 216.85 c1.35 -1.20 1.60 -1.70 1.35 -2.75 -0.20 -0.75 -0.70 -1.80 -1.15 -2.35 -0.45 -0.60 -0.20 -0.40 0.60 0.35 0.75 0.80 1.35 1.80 1.35 2.30 0 0.85 -1.30 2.30 -3 3.35 -0.45 0.30 -0.05 -0.15 0.85 -0.90z"/>
  <path d="M361 202.25 c-0.50 -0.60 -0.50 -0.80 0.05 -1 1.20 -0.40 9.35 -0.50 9.10 -0.10 -0.10 0.20 -2.25 0.35 -4.75 0.35 -3.95 0 -4.45 0.10 -3.90 0.75 0.35 0.40 0.50 0.75 0.35 0.75 -0.10 0 -0.50 -0.35 -0.85 -0.75z"/>
  <path d="M369.50 190.40 c0 -5.30 0.20 -9.95 0.45 -10.35 0.25 -0.35 0.45 3.65 0.50 9.65 0 6.45 -0.15 10.30 -0.45 10.30 -0.30 0 -0.50 -3.65 -0.50 -9.60z"/>
  <path d="M325.10 179.15 c8.20 -0.10 21.60 -0.10 29.80 0 8.15 0.05 1.45 0.10 -14.90 0.10 -16.35 0 -23.05 -0.05 -14.90 -0.10z"/>
  <path d="M179 144.75 c0 -0.10 1.85 -1.75 4.15 -3.60 6.45 -5.35 5.85 -5 5.85 -3.20 0 1.40 -0.15 1.55 -1.50 1.55 -1.25 0 -1.50 0.20 -1.50 1.25 0 1 -0.25 1.25 -1.25 1.25 -0.85 0 -1.25 0.25 -1.25 0.90 0 1.35 -1 2.10 -2.85 2.10 -0.90 0 -1.65 -0.10 -1.65 -0.25z"/>
  <path d="M366 141.95 l0 -1.50 1.50 1.05 c2.20 1.55 2.25 2 0.30 2 -1.65 0 -1.80 -0.10 -1.80 -1.55z"/>
  <path d="M371.60 141.25 c-0.65 -0.65 -1 -1.50 -0.85 -1.80 0.25 -0.35 0.80 -0.05 1.55 0.85 1.90 2.40 1.35 3.15 -0.70 0.95z"/>
  <path d="M360.50 137.45 l0 -1.50 1.50 1.05 c2.20 1.55 2.25 2 0.30 2 -1.65 0 -1.80 -0.10 -1.80 -1.55z"/>
  <path d="M366 134.15 l-4.25 -4.40 4.40 4.25 c4.05 3.95 4.60 4.50 4.20 4.50 -0.05 0 -2.05 -1.95 -4.35 -4.35z"/>
  <path d="M131 137.35 c0 -0.05 1.75 -1.80 3.90 -3.85 l3.85 -3.75 -3.75 3.90 c-3.45 3.55 -4 4.10 -4 3.70z"/>
  <path d="M356.50 134.75 c0 -1.10 -0.20 -1.25 -1.75 -1.25 -1.55 0 -1.75 -0.15 -1.75 -1.25 0 -0.70 0.20 -1.25 0.40 -1.25 0.50 0 6.60 4.40 6.60 4.75 0 0.15 -0.80 0.25 -1.75 0.25 -1.55 0 -1.75 -0.15 -1.75 -1.25z"/>
  <path d="M200 129.10 c0 -0.40 2.60 -2.10 3.20 -2.10 0.15 0 0.30 0.55 0.30 1.25 0 1.10 -0.20 1.25 -1.75 1.25 -0.95 0 -1.75 -0.20 -1.75 -0.40z"/>
  <path d="M287.75 127.90 c-3.10 -1.05 -3.75 -1.40 -3.75 -1.90 0 -0.25 0.90 -0.50 2 -0.50 1.10 0 2 0.25 2 0.50 0 0.30 0.80 0.50 1.75 0.50 1.40 0 1.75 0.20 1.75 1 0 1.10 -1.20 1.25 -3.75 0.40z"/>
  <path d="M345 127.25 c0 -1.50 0.15 -1.50 2.05 -0.40 1.90 1.15 1.85 1.65 -0.30 1.65 -1.55 0 -1.75 -0.15 -1.75 -1.25z"/>
  <path d="M141.50 127.35 c0 -0.10 0.75 -0.80 1.65 -1.65 l1.60 -1.45 -1.45 1.65 c-1.40 1.50 -1.80 1.85 -1.80 1.45z"/>
  <path d="M275.40 125.15 c-0.50 -0.10 -0.90 -0.55 -0.90 -0.95 0 -0.50 0.65 -0.70 2.25 -0.70 1.90 0 2.25 0.15 2.25 1 0 0.75 -0.30 1 -1.35 0.95 -0.80 -0.05 -1.80 -0.15 -2.25 -0.30z"/>
  <path d="M269.25 124.25 c-0.25 -0.10 -1.35 -0.30 -2.35 -0.50 -1.30 -0.20 -1.90 -0.55 -1.90 -1.10 0 -0.65 0.45 -0.75 3.05 -0.45 1.70 0.15 3.65 0.30 4.25 0.30 0.85 0 1.20 0.30 1.20 1 0 0.85 -0.30 1 -1.85 0.95 -1.05 0 -2.10 -0.10 -2.40 -0.20z"/>
  <path d="M254.40 123.15 c-0.50 -0.10 -0.90 -0.55 -0.90 -0.95 0 -0.55 0.95 -0.70 4.75 -0.70 4.40 0 4.75 0.05 4.75 1 0 0.90 -0.30 1 -3.85 0.95 -2.15 -0.05 -4.30 -0.15 -4.75 -0.30z"/>
  <path d="M216.60 120.40 c0.15 -0.35 0.95 -0.90 1.80 -1.25 1.55 -0.65 1.60 -0.60 1.60 0.60 0 1.10 -0.20 1.25 -1.80 1.25 -1.15 0 -1.70 -0.20 -1.60 -0.60z"/>
  <path d="M236.50 113.30 c0 -0.65 1.40 -1.30 2.90 -1.30 0.30 0 0.60 0.45 0.60 1 0 0.80 -0.35 1 -1.75 1 -1.15 0 -1.75 -0.25 -1.75 -0.70z"/>
  <path d="M243 111.80 c0 -0.65 1.40 -1.30 2.90 -1.30 0.30 0 0.60 0.45 0.60 1 0 0.80 -0.35 1 -1.75 1 -1.15 0 -1.75 -0.25 -1.75 -0.70z"/>
  <path d="M258.50 109.30 c0 -0.35 0.50 -0.80 1.15 -1 2.05 -0.55 2.85 -0.35 2.85 0.70 0 0.85 -0.35 1 -2 1 -1.35 0 -2 -0.20 -2 -0.70z"/>
  <path d="M264 108.75 c0 -0.75 0.40 -0.90 3.40 -1 1.20 0 1.60 0.20 1.60 0.85 0 0.75 -0.45 0.90 -2.50 0.90 -1.90 0 -2.50 -0.20 -2.50 -0.75z"/>
  <path d="M293.40 105.15 c0.60 -0.10 1.50 -0.10 2 0 0.45 0.15 -0.05 0.25 -1.15 0.20 -1.10 0 -1.50 -0.10 -0.85 -0.20z"/>
  <path d="M289.65 104.65 c0.45 -0.10 1.25 -0.10 1.75 0 0.45 0.15 0.05 0.25 -0.90 0.25 -0.95 0 -1.35 -0.10 -0.85 -0.25z"/>
  <path d="M282.40 104.15 c1.15 -0.10 2.95 -0.10 4 0 1 0.10 0.05 0.20 -2.15 0.20 -2.20 0 -3.05 -0.10 -1.85 -0.20z"/>
  <path d="M233.90 86.65 c0.60 -0.10 1.50 -0.10 2 0 0.45 0.15 -0.05 0.25 -1.15 0.20 -1.10 0 -1.50 -0.10 -0.85 -0.20z"/>
 </g>
 <g fill="#adcf23">
  <path d="M266.75 391.70 c-5.55 -0.35 -15.95 -1.75 -22 -3 -13.05 -2.60 -29.80 -9 -40.15 -15.30 -1.70 -1.05 -3.20 -1.90 -3.30 -1.90 -0.70 0 -12.15 -8.05 -16.30 -11.50 -7.80 -6.40 -17.40 -16 -16.05 -16 0.25 0 2.15 1.45 4.15 3.20 6.65 5.75 14.55 10.95 23.40 15.30 8.15 4.05 8.60 4.25 15 6.50 30.10 10.75 62.95 9.65 92.25 -3 5.30 -2.30 13.45 -6.55 17.70 -9.20 l2.05 -1.30 23.10 0 23.15 0.05 -2.50 2.30 c-5.70 5.30 -16.55 12.70 -25.75 17.55 -15.30 8.10 -29.50 12.70 -47.20 15.35 -4.95 0.75 -21.65 1.30 -27.55 0.95z"/>
  <path d="M160.80 326.05 c-0.30 -0.45 1.75 -1.20 2.15 -0.75 0.30 0.25 -0.90 1.20 -1.55 1.20 -0.20 0 -0.45 -0.20 -0.60 -0.45z"/>
  <path d="M167.50 156.60 c0 -0.80 14 -14.15 19 -18.15 20.10 -16.05 44.65 -26.40 70.25 -29.75 9.35 -1.25 29.40 -1.25 37.50 -0.05 28.40 4.25 53.45 15.60 74.25 33.80 l1.75 1.50 -23.20 0.05 -23.15 0 -4.10 -2.45 c-17.05 -10.20 -35.65 -16.30 -55.05 -18.05 -8.55 -0.80 -24.40 0 -32.50 1.55 -6.70 1.30 -8.10 1.60 -9.25 1.95 -0.70 0.20 -2.25 0.65 -3.50 1 -16.50 4.65 -31.05 12.20 -44.45 22.95 -2.55 2.10 -5.30 4.30 -6.10 4.95 -0.80 0.65 -1.45 0.95 -1.45 0.70z"/>
 </g>
</svg>