<svg viewBox="0 0 1201 1201" fill="none" xmlns="http://www.w3.org/2000/svg">
<path d="M553.347 1157.68C535.2 1156.48 498.734 1150.83 480.587 1146.55C476.307 1145.53 470.658 1144.33 467.747 1143.99C465.008 1143.47 461.07 1142.44 459.187 1141.59C457.304 1140.9 451.997 1139.36 447.203 1138.16C442.581 1136.97 437.102 1135.43 435.219 1134.74C433.336 1133.88 428.371 1132 424.091 1130.63C382.147 1117.11 328.39 1090.23 287.474 1062.32C166.949 980.147 81.5199 851.576 53.4432 710.165C44.712 666.166 42.8288 642.883 43.6848 583.477C45.9104 416.214 126.546 258.71 265.046 151.71C321.542 108.054 396.357 72.4449 469.459 54.4689C515.854 42.9985 523.901 42.1425 592.552 41.2865C660.005 40.4305 671.646 41.1153 709.995 48.6481C799.704 66.2817 883.934 105.658 955.154 163.181C978.437 181.842 1023.12 225.669 1020.21 226.867C1019.18 227.21 1013.36 223.443 1007.37 218.307C971.76 187.32 935.808 165.235 882.051 140.925C846.099 124.661 792.342 110.451 741.667 103.946C719.24 101.035 652.301 100.864 630.387 103.774C604.365 107.198 568.413 113.875 555.915 117.813C553.518 118.498 548.211 120.038 543.931 121.237C539.651 122.264 534.858 123.976 533.317 124.832C531.605 125.688 528.694 126.373 526.982 126.373C525.099 126.373 523.045 127.229 522.531 128.085C522.018 129.112 519.621 129.797 517.395 129.797C515.17 129.797 512.773 130.653 512.259 131.509C511.746 132.536 510.034 133.221 508.835 133.221C504.726 133.221 475.451 146.403 451.826 158.901C392.077 190.402 338.491 234.571 296.718 286.616C281.139 305.962 261.794 333.867 254.774 347.221C252.549 351.501 249.467 356.808 247.755 359.205C244.331 364.341 232.518 388.994 227.211 402.005C225.157 407.141 222.246 413.989 220.877 417.07C213.686 433.334 199.99 480.243 196.224 501.301C191.773 525.782 190.917 532.802 188.691 553.517C184.411 597.173 185.61 631.242 193.314 679.349C210.262 786.349 259.397 880.509 337.806 956.693C385.742 1003.09 439.499 1038.01 501.987 1062.84C597.003 1100.67 706.229 1107.69 808.435 1082.35C882.907 1063.86 962.858 1021.58 1017.3 971.758C1020.21 969.019 1023.12 966.965 1023.8 966.965C1029.28 966.965 977.238 1017.81 950.531 1038.7C911.669 1069 867.842 1095.71 831.205 1111.46C816.139 1117.79 811.688 1119.68 808.435 1121.04C792.685 1127.38 761.526 1137.99 752.795 1139.88C749.542 1140.73 742.523 1142.44 737.387 1143.81C724.718 1147.07 713.077 1149.29 679.179 1155.28C668.565 1157.17 571.323 1159.05 553.347 1157.68Z" fill="#65A148"/>
<path d="M292.267 863.046C292.267 862.362 293.808 860.65 295.862 859.451C297.746 858.253 305.278 852.432 312.298 846.611C319.488 840.791 332.841 829.834 341.915 822.301C351.16 814.768 368.109 800.901 379.579 791.485C391.049 782.069 403.033 772.482 406.115 770.085C411.08 766.318 438.301 744.062 471.171 717.013C488.805 702.29 515.512 680.547 526.811 671.645C532.632 667.022 541.192 660.003 545.643 656.237C549.923 652.47 558.654 645.451 564.646 640.486C585.533 623.538 628.675 588.442 638.947 580.053C679.35 546.669 687.226 540.163 689.794 538.794C692.362 537.424 694.587 539.479 703.147 550.435C796.28 670.789 796.28 670.789 797.992 670.789C798.677 670.789 804.84 666.68 811.688 661.715C818.365 656.579 832.745 645.965 843.531 637.918C864.075 622.853 899.513 596.659 944.539 563.275C959.091 552.319 976.553 539.478 983.059 534.685C1029.28 500.616 1048.97 485.551 1048.97 484.523C1048.97 483.839 1044.69 478.018 1039.56 471.512C1034.59 464.835 1030.65 459.014 1031.17 458.33C1031.51 457.645 1060.78 456.96 1095.88 456.789L1159.91 456.618L1159.05 460.555C1158.54 462.781 1156.31 470.998 1153.92 479.045C1151.69 487.091 1148.27 499.075 1146.38 505.581C1144.5 512.258 1142.28 519.962 1141.42 522.701C1140.56 525.611 1139.19 530.576 1138.17 533.829C1130.12 562.762 1124.64 579.197 1123.1 579.197C1122.07 579.197 1116.94 573.547 1111.63 566.87C1106.15 560.022 1101.19 554.373 1100.33 554.373C1099.48 554.373 1088.18 561.906 1075.16 571.322C1047.94 590.667 980.662 638.261 938.547 668.05C922.625 679.349 904.478 692.018 898.315 696.469C892.152 700.92 873.662 713.931 857.227 725.573C840.792 737.214 818.365 753.136 807.237 761.011C796.28 768.887 786.35 775.563 784.981 776.077C783.611 776.419 773.853 764.949 759.472 745.603C738.928 718.211 678.323 638.774 676.269 636.549C675.926 636.206 673.872 636.891 671.818 638.261C668.222 640.486 552.149 710.336 384.715 811.002C343.798 835.655 308.189 857.397 305.792 859.109C300.485 862.875 292.267 865.272 292.267 863.046Z" fill="#65A148"/>
<path d="M591.525 1009.76C580.568 1009.08 570.81 1007.88 569.782 1007.37C568.413 1006.51 567.899 965.766 567.899 867.84C567.899 738.242 568.07 729.339 570.981 726.943C575.946 722.491 669.078 667.194 670.619 667.707C671.304 668.05 678.837 677.295 687.054 688.251C695.443 699.208 706.914 714.274 712.563 721.635C718.213 728.997 734.134 749.883 748.173 768.031L773.339 801.072L772.997 890.267L772.483 979.634L762.211 983.743C756.562 985.968 749.714 988.536 746.803 989.221C744.064 990.077 735.162 992.645 727.115 994.871C686.198 1007.03 635.523 1012.68 591.525 1009.76Z" fill="#8C8C8D"/>
<path d="M808.778 960.631C808.093 960.117 807.579 957.72 807.579 955.495C807.579 952.755 808.606 951.557 811.003 951.557C812.886 951.557 814.427 950.872 814.427 949.845C814.427 948.989 815.968 948.133 817.851 948.133C819.734 948.133 821.275 947.448 821.275 946.421C821.275 945.565 822.474 944.709 823.843 944.709C825.213 944.709 826.411 944.024 826.411 943.339C826.411 942.483 829.322 940.429 832.746 938.546C836.341 936.834 840.278 934.266 841.477 933.239C843.189 931.527 862.363 931.013 925.022 931.013C977.923 931.013 1006.17 930.499 1006.17 929.301C1006.17 928.445 1007.88 927.589 1010.11 927.589C1015.24 927.589 1016.27 935.293 1011.48 937.861C1009.25 938.888 979.635 939.573 928.104 939.573H848.154L837.71 946.079C827.438 952.584 811.345 961.829 810.318 961.829C810.147 961.829 809.291 961.315 808.778 960.631Z" fill="#8C8C8D"/>
<path d="M807.579 794.224C807.579 788.575 808.435 787.034 813.229 783.952C816.139 782.069 820.59 779.159 822.987 777.447C825.384 775.735 842.675 763.408 861.507 750.055C880.339 736.701 898.144 724.203 900.883 722.149C903.794 720.095 923.31 706.056 944.539 690.991C965.768 675.925 985.798 661.715 989.051 659.49C992.304 657.264 998.467 653.155 1002.58 650.245C1010.96 644.253 1015.76 644.424 1013.7 650.587C1012.33 655.552 1009.94 657.093 1004.12 657.093C1000.86 657.093 999.494 658.12 998.981 660.688C998.638 662.571 996.241 665.482 993.502 667.023C990.763 668.563 986.997 671.303 985.285 673.015C983.573 674.555 980.662 675.925 978.779 675.925C976.896 675.925 975.355 676.952 975.355 678.151C975.355 680.547 958.577 693.045 955.325 693.045C954.297 693.045 953.099 694.243 952.414 695.613C951.901 696.983 950.702 698.181 949.846 698.181C948.819 698.181 946.08 700.064 943.512 702.461C940.944 704.858 937.862 706.741 936.664 706.741C935.294 706.741 934.267 707.597 934.267 708.453C934.267 709.48 933.069 710.165 931.699 710.165C930.33 710.165 929.131 710.85 929.131 711.877C929.131 713.418 909.957 727.285 907.902 727.285C907.217 727.285 905.334 728.826 903.451 730.709C901.568 732.592 898.486 734.133 896.603 734.133C894.72 734.133 893.179 735.16 893.179 736.359C893.179 738.755 876.401 751.253 873.149 751.253C872.121 751.253 870.923 752.451 870.238 753.821C869.725 755.191 868.526 756.389 867.67 756.389C866.814 756.389 863.39 758.786 860.309 761.525C857.227 764.435 852.947 767.175 850.893 767.688C848.667 768.373 846.955 769.4 846.955 770.256C846.955 771.455 827.61 785.493 825.898 785.493C823.672 785.493 814.427 795.765 814.427 798.162C814.427 799.703 813.058 800.901 811.003 800.901C808.093 800.901 807.579 799.703 807.579 794.224Z" fill="#8C8C8D"/>
<path d="M808.435 631.584C807.066 627.133 809.12 622.853 812.886 622.853C814.598 622.853 816.139 621.655 816.139 620.285C816.139 618.915 817.166 617.717 818.536 617.717C819.906 617.717 821.275 616.519 821.96 615.149C822.474 613.779 824.528 612.581 826.411 612.581C828.294 612.581 829.835 611.383 829.835 610.013C829.835 607.103 834.971 604.021 839.936 604.021C842.162 604.021 843.531 602.994 843.531 601.282C843.531 597.858 848.325 593.92 852.605 593.749C854.146 593.749 855.515 592.551 855.515 591.181C855.515 589.811 856.542 588.613 857.912 588.613C859.282 588.613 860.651 587.415 861.336 586.045C861.85 584.675 863.904 583.477 865.787 583.477C867.67 583.477 869.211 582.279 869.211 580.909C869.211 579.539 870.41 578.341 871.779 578.341C873.149 578.341 874.347 577.656 874.347 576.629C874.347 575.773 877.086 574.917 880.339 574.917C885.475 574.917 886.331 574.403 886.331 570.979C886.331 566.186 889.242 562.933 893.522 562.933C895.234 562.933 896.603 562.077 896.603 561.05C896.603 558.311 901.91 554.544 905.677 554.373C907.218 554.373 908.587 553.175 908.587 551.805C908.587 550.435 909.614 549.237 910.984 549.237C912.354 549.237 913.723 548.039 914.408 546.669C914.922 545.299 916.976 544.101 918.859 544.101C920.742 544.101 922.283 543.245 922.283 542.218C922.283 539.307 927.762 535.712 932.213 535.541C934.781 535.541 935.979 534.514 935.979 532.117C935.979 530.234 937.178 528.693 938.547 528.693C939.917 528.693 941.115 528.008 941.115 526.981C941.115 526.125 942.656 525.269 944.539 525.269C946.422 525.269 947.963 524.071 947.963 522.701C947.963 521.331 948.99 520.133 950.36 520.133C951.73 520.133 953.099 518.935 953.784 517.565C954.298 516.195 956.352 514.997 958.235 514.997C960.118 514.997 961.659 514.141 961.659 513.114C961.659 509.861 969.192 504.896 973.986 504.725C977.41 504.725 978.608 503.698 979.122 500.959C979.464 498.733 981.347 496.336 983.573 495.309C985.627 494.453 987.339 493.083 987.339 492.399C987.339 491.543 988.366 491.029 989.736 491.029C991.106 491.029 992.475 489.831 993.16 488.461C993.674 487.091 995.386 485.893 997.098 485.893C1001.38 485.893 1004.46 478.874 1002.06 474.594C1001.04 472.882 999.152 470.656 998.125 469.971C996.926 469.287 995.899 467.575 995.899 466.376C995.899 465.007 994.701 463.637 993.331 462.952C991.962 462.439 990.763 460.384 990.763 458.501C990.763 456.618 989.736 455.077 988.366 455.077C985.456 455.077 978.779 446.346 978.779 442.408C978.779 440.867 978.094 439.669 977.067 439.669C976.211 439.669 975.355 436.93 975.355 433.677C975.355 428.027 975.698 427.685 981.347 427.685C986.141 427.685 987.339 428.37 987.339 430.938C987.339 432.821 986.312 434.533 984.942 434.875C982.374 435.389 989.394 445.49 1006.51 466.034C1011.82 472.539 1014.73 477.504 1014.39 479.73C1014.05 482.127 1000.52 493.255 972.445 514.141C890.269 575.431 854.83 601.624 840.963 611.725C833.259 617.375 822.987 624.907 818.194 628.331C810.49 633.981 809.291 634.323 808.435 631.584Z" fill="#8C8C8D"/>
<path d="M568.755 603.679C568.242 601.453 568.07 560.536 568.242 512.429L568.755 425.117L669.934 424.603L771.114 424.261L772.312 432.821C773.853 444.805 773.339 597.002 771.627 598.029C770.942 598.371 763.923 590.496 756.048 580.395C748.173 570.295 736.702 555.571 730.539 547.525C724.205 539.479 714.275 526.639 708.454 518.935C702.634 511.059 697.326 504.725 696.642 504.725C695.443 504.725 689.109 509.861 648.192 543.245C636.722 552.661 620.286 566.186 611.555 573.205C602.995 580.224 589.984 590.839 582.794 596.831C570.467 606.931 569.611 607.445 568.755 603.679Z" fill="#8C8C8D"/>
<path d="M1006.17 429.568C1006.17 425.117 1006.86 424.261 1010.11 424.261C1013.53 424.261 1014.22 425.117 1013.88 429.055C1013.7 432.479 1012.68 433.848 1009.94 434.191C1006.68 434.704 1006.17 434.019 1006.17 429.568Z" fill="#8C8C8D"/>
<path d="M1006.17 362.8C1006.17 357.493 1008.4 356.123 1012.51 358.863C1015.76 360.917 1014.05 366.909 1009.94 367.423C1006.68 367.936 1006.17 367.08 1006.17 362.8Z" fill="#8C8C8D"/>
<path d="M807.922 362.286C808.778 356.466 814.427 355.952 814.427 361.602C814.427 365.026 813.571 366.053 810.832 366.053C808.264 366.053 807.408 365.197 807.922 362.286Z" fill="#8C8C8D"/>
<path d="M809.633 960.631C806.723 959.603 806.723 787.89 809.633 786.178C810.832 785.493 811.003 785.664 810.318 786.863C807.75 791.143 811.688 788.575 817.509 782.583C820.761 778.987 822.987 777.275 822.302 778.645C821.617 780.015 822.302 779.672 823.672 777.96C825.213 776.077 826.411 775.221 826.411 776.248C826.411 777.104 828.123 775.906 830.006 773.509C831.889 771.112 833.088 770.427 832.403 771.797C831.718 773.167 832.917 772.482 834.971 770.085C837.025 767.688 838.224 767.003 837.539 768.373C837.025 769.743 838.395 768.715 840.792 765.805C843.189 763.066 845.243 761.354 845.243 762.21C845.243 763.237 846.441 762.381 847.982 760.498C849.352 758.786 850.208 758.443 849.523 759.813C848.838 761.183 850.55 760.155 852.947 757.245C855.515 754.506 857.056 753.307 856.371 754.677C855.857 756.047 856.542 755.704 858.083 753.821C859.624 751.938 861.507 750.568 862.363 750.739C863.219 751.082 864.76 749.712 865.787 747.829C866.814 745.946 868.355 744.747 869.382 745.261C870.238 745.946 873.491 743.891 876.401 740.639C879.312 737.557 881.195 736.187 880.51 737.557C879.825 738.927 880.853 738.242 882.907 735.845C884.961 733.448 886.16 732.763 885.475 734.133C884.79 735.503 885.989 734.647 888.043 731.907C890.097 729.339 892.494 727.627 893.35 728.312C894.206 728.826 894.891 728.312 894.891 727.456C894.891 726.429 895.576 725.744 896.432 726.087C897.117 726.258 899.514 724.546 901.568 722.149C903.794 719.752 904.992 719.067 904.307 720.437C903.622 721.807 904.478 721.464 905.848 719.752C907.389 717.869 908.587 717.013 908.587 718.04C908.587 718.896 910.299 717.698 912.182 715.301C914.065 712.904 915.264 712.219 914.579 713.589C913.894 714.959 915.093 714.274 917.147 711.877C919.201 709.48 920.4 708.795 919.715 710.165C919.201 711.535 920.571 710.507 922.968 707.597C925.365 704.858 927.419 703.317 927.419 704.173C927.419 705.2 928.275 704.687 929.131 703.317C929.987 701.947 931.528 700.749 932.384 700.749C933.411 700.749 935.294 699.208 936.835 697.325C938.376 695.442 939.232 695.099 938.547 696.469C937.862 697.839 938.718 697.496 940.259 695.613C941.8 693.73 943.683 692.189 944.539 692.189C945.395 692.189 947.278 690.648 948.648 688.765C950.189 686.882 951.387 686.026 951.387 686.882C951.387 687.909 952.585 687.053 954.126 685.17C955.496 683.458 956.352 683.115 955.667 684.485C954.982 685.855 956.694 684.827 959.091 681.917C961.659 679.178 963.2 677.979 962.515 679.349C961.83 680.719 963.029 680.034 965.083 677.637C967.137 675.24 968.336 674.555 967.651 675.925C966.966 677.295 968.336 676.267 970.904 673.357C973.301 670.618 975.184 668.906 975.355 669.762C975.355 670.789 976.553 669.933 978.094 668.05C979.464 666.338 980.149 665.995 979.635 667.365C978.95 668.735 980.491 667.707 983.059 664.797C985.456 662.058 987.168 660.859 986.483 662.229C985.798 663.599 986.654 663.256 988.024 661.544C989.565 659.661 990.763 658.805 990.763 659.832C990.763 660.688 992.475 659.147 994.701 656.579C996.755 654.011 999.837 651.615 1001.38 651.272C1003.09 651.101 1005.49 649.389 1006.86 647.677C1009.25 644.424 1014.73 645.109 1014.73 648.533C1014.73 649.56 1014.05 650.074 1013.19 649.389C1012.16 648.875 1012.16 650.587 1013.19 654.011C1014.05 657.435 1014.73 716.328 1014.73 797.819C1014.73 933.067 1014.56 936.149 1011.31 937.861C1009.08 939.059 980.662 939.402 926.734 939.231C882.051 938.888 845.928 939.059 846.27 939.402C847.469 940.6 840.107 944.88 838.566 943.853C837.71 943.339 836.341 943.853 835.656 944.88C834.971 946.25 835.142 946.421 836.341 945.736C837.539 945.051 838.395 944.88 838.395 945.223C838.395 947.106 822.816 955.152 821.275 954.125C820.248 953.44 819.734 953.954 819.905 955.323C820.248 956.693 819.049 957.378 816.481 957.207C814.256 956.864 812.886 957.378 813.571 958.234C814.769 960.288 812.544 961.658 809.633 960.631ZM969.877 936.663C947.449 936.32 910.813 936.32 888.557 936.663C866.129 936.834 884.448 937.005 929.131 937.005C973.814 937.005 992.133 936.834 969.877 936.663Z" fill="#605E5E"/>
<path d="M808.606 632.098C807.237 628.674 807.237 363.827 808.606 360.232C809.634 357.835 820.077 357.493 910.128 357.493H1010.45L1012.51 361.773C1015.24 367.936 1015.42 429.397 1012.51 429.397C1011.14 429.397 1011.31 430.082 1013.02 431.109C1017.3 433.848 1011.31 434.875 995.214 434.19C981.518 433.677 980.834 433.848 983.402 436.758C984.942 438.299 985.456 439.669 984.6 439.669C983.744 439.669 984.942 441.381 987.339 443.606C989.736 445.661 990.934 447.031 989.907 446.517C988.88 446.003 989.736 447.202 991.962 449.085C994.187 451.139 995.899 453.365 995.899 454.221C995.899 455.077 997.954 457.645 1000.69 459.87C1003.26 462.096 1004.12 463.295 1002.75 462.61C1001.38 461.754 1003.43 464.322 1007.54 468.088C1011.48 472.026 1014.73 476.648 1014.73 478.702C1014.73 482.298 1003.26 493.255 1000.86 491.714C1000.18 491.371 998.638 492.399 997.782 494.111C996.755 495.994 994.016 498.733 991.448 500.445C988.366 502.328 987.339 502.671 988.195 501.13C988.88 499.76 987.168 501.13 984.429 504.04C981.861 506.951 978.094 510.375 976.382 511.744C973.472 513.799 973.13 513.799 974.328 511.573C975.013 510.203 973.814 510.888 971.589 513.285C965.597 519.791 959.091 524.927 960.632 521.845C961.317 520.475 960.461 520.989 958.749 523.043C953.955 528.864 944.197 535.541 942.314 534.343C941.286 533.829 941.115 534 941.629 535.027C942.142 535.883 940.259 538.451 937.349 540.677C934.438 542.731 932.726 543.416 933.582 542.218C934.267 540.848 932.384 542.389 929.302 545.299C926.221 548.381 923.31 550.778 922.626 550.607C921.941 550.435 918.859 552.661 915.606 555.743C912.525 558.824 909.272 560.879 908.416 560.365C907.731 559.851 906.19 560.879 905.334 562.591C904.307 564.474 901.568 567.213 899 568.925C896.09 570.808 894.891 570.979 895.918 569.61C896.603 568.24 894.035 570.466 889.926 574.575C885.989 578.512 882.051 581.423 881.195 580.909C880.168 580.395 879.483 580.567 879.483 581.423C879.483 582.279 876.573 585.189 873.149 587.928C869.725 590.496 867.499 591.523 868.184 590.154C869.04 588.784 867.842 589.64 865.616 592.037C859.453 598.714 852.947 603.679 854.488 600.597C855.344 599.056 854.83 599.227 853.29 600.939C851.92 602.651 850.208 603.336 849.523 602.651C848.667 601.967 848.667 602.309 849.181 603.336C850.379 605.562 840.792 613.095 838.395 611.725C837.539 611.211 836.341 611.725 835.656 612.752C834.8 614.122 835.314 614.464 836.854 613.608C838.224 612.923 837.368 613.779 834.971 615.663C832.746 617.546 830.349 619.087 829.835 618.915C829.322 618.744 826.411 621.141 823.158 624.223C819.906 627.304 816.995 629.359 816.482 628.845C815.968 628.503 814.256 629.53 812.715 631.413C809.976 634.495 809.634 634.495 808.606 632.098Z" fill="#605E5E"/>
<path d="M568.07 599.399C568.07 595.119 568.242 594.947 569.611 598.029C571.666 602.651 571.666 604.021 569.611 604.021C568.755 604.021 567.899 601.967 568.07 599.399Z" fill="#605E5E"/>
<path d="M564.133 1157.51C566.187 1157.17 569.269 1157.17 570.981 1157.51C572.522 1158.02 570.81 1158.37 567.043 1158.2C563.277 1158.2 561.907 1157.85 564.133 1157.51Z" fill="#CACACB"/>
<path d="M538.453 1155.8C540.507 1155.46 543.931 1155.46 546.157 1155.8C548.211 1156.14 546.499 1156.48 542.219 1156.48C537.939 1156.48 536.227 1156.14 538.453 1155.8Z" fill="#CACACB"/>
<path d="M663.429 1085.61C657.266 1084.07 660.005 1079.96 667.195 1079.96C672.845 1079.96 674.043 1080.47 674.043 1083.38C674.043 1086.8 670.619 1087.49 663.429 1085.61Z" fill="#CACACB"/>
<path d="M711.707 1083.21C711.707 1080.47 712.906 1079.96 718.555 1079.96C723.52 1079.96 725.403 1080.64 725.403 1082.52C725.403 1083.89 724.376 1085.26 723.349 1085.26C722.15 1085.44 719.069 1085.78 716.501 1086.12C712.734 1086.46 711.707 1085.95 711.707 1083.21Z" fill="#CACACB"/>
<path d="M624.395 1083.21C619.259 1082.35 612.411 1081.16 609.501 1080.64C602.995 1079.61 601.626 1074.82 607.789 1074.82C609.843 1074.82 619.43 1075.68 629.189 1076.88C644.083 1078.76 646.651 1079.44 646.651 1082.01C646.651 1085.44 640.659 1085.78 624.395 1083.21Z" fill="#CACACB"/>
<path d="M588.101 1077.05C581.938 1075.51 584.677 1071.4 591.867 1071.4C597.517 1071.4 598.715 1071.91 598.715 1074.82C598.715 1078.24 595.291 1078.93 588.101 1077.05Z" fill="#CACACB"/>
<path d="M572.693 1073.62C567.043 1072.25 569.269 1067.97 575.603 1067.97C580.397 1067.97 581.595 1068.66 581.595 1071.4C581.595 1074.82 579.198 1075.33 572.693 1073.62Z" fill="#CACACB"/>
<path d="M615.835 1036.47C615.835 1033.73 620.115 1032.36 624.909 1033.39C630.387 1034.76 628.162 1038.87 621.827 1038.87C617.718 1038.87 615.835 1038.01 615.835 1036.47Z" fill="#CACACB"/>
<path d="M632.955 1036.47C632.955 1034.25 637.749 1032.02 642.885 1032.02C643.912 1032.02 644.939 1033.56 644.939 1035.44C644.939 1038.18 643.741 1038.87 638.947 1038.87C635.009 1038.87 632.955 1038.01 632.955 1036.47Z" fill="#CACACB"/>
<path d="M650.075 1034.59C650.075 1033.22 651.102 1032.02 652.301 1031.85C653.328 1031.85 656.067 1031.51 658.293 1030.99C661.203 1030.48 662.059 1031.16 662.059 1033.73C662.059 1036.47 660.861 1037.16 656.067 1037.16C651.958 1037.16 650.075 1036.3 650.075 1034.59Z" fill="#CACACB"/>
<path d="M687.739 1029.62C687.739 1027.4 692.533 1025.17 697.669 1025.17C698.696 1025.17 699.723 1026.71 699.723 1028.6C699.723 1031.34 698.525 1032.02 693.731 1032.02C689.794 1032.02 687.739 1031.16 687.739 1029.62Z" fill="#CACACB"/>
<path d="M730.539 1019.35C730.539 1017.13 735.333 1014.9 740.469 1014.9C741.496 1014.9 742.523 1016.44 742.523 1018.32C742.523 1021.06 741.325 1021.75 736.531 1021.75C732.594 1021.75 730.539 1020.89 730.539 1019.35Z" fill="#CACACB"/>
<path d="M998.467 994.357C1008.74 984.085 1017.64 975.525 1018.16 975.525C1018.5 975.525 1010.45 984.085 1000.18 994.357C989.907 1004.8 981.005 1013.19 980.491 1013.19C980.149 1013.19 988.195 1004.8 998.467 994.357Z" fill="#CACACB"/>
<path d="M595.291 1009.94L579.027 1008.74L592.723 1008.05C600.256 1007.71 609.501 1007.37 613.267 1007.03C616.863 1006.85 628.162 1007.2 638.091 1008.05C652.986 1009.08 654.184 1009.25 644.939 1009.59C638.776 1009.59 628.847 1010.11 622.683 1010.45C616.52 1010.79 604.194 1010.45 595.291 1009.94Z" fill="#CACACB"/>
<path d="M571.323 1005.31C571.323 1003.77 572.179 1002.92 573.378 1003.26C576.459 1004.29 576.973 1008.05 574.062 1008.05C572.522 1008.05 571.323 1006.85 571.323 1005.31Z" fill="#CACACB"/>
<path d="M663.771 1005.66C663.771 1003.09 664.97 1002.92 671.989 1003.94C681.576 1005.31 683.459 1006.34 676.44 1006.34C673.701 1006.34 669.763 1006.85 667.709 1007.37C664.798 1008.22 663.771 1007.71 663.771 1005.66Z" fill="#CACACB"/>
<path d="M568.755 867.669C568.755 790.971 568.927 759.471 569.098 797.819C569.44 836.339 569.44 898.999 569.098 937.519C568.927 975.867 568.755 944.367 568.755 867.669Z" fill="#CACACB"/>
<path d="M687.739 1001.72C687.739 999.322 689.622 999.151 696.299 1001.03C700.237 1002.23 700.066 1002.4 694.245 1003.09C689.622 1003.77 687.739 1003.26 687.739 1001.72Z" fill="#CACACB"/>
<path d="M524.757 1000.35C524.243 999.835 518.251 997.952 511.232 996.069C464.323 983.743 419.298 962.685 380.435 935.122C359.035 919.885 354.413 916.119 340.888 903.963L329.075 893.349V883.248C329.075 877.598 329.418 872.805 329.931 872.291C330.958 871.435 406.8 825.554 456.619 795.765C510.547 763.408 528.694 752.965 530.406 752.965C531.262 752.965 531.947 802.442 531.947 877.085C531.947 996.24 531.776 1001.2 528.866 1001.2C527.154 1001.2 525.27 1000.86 524.757 1000.35Z" fill="#CACACB"/>
<path d="M704.859 998.295C704.859 995.898 707.427 995.555 712.563 997.61C715.474 998.808 715.131 999.151 710.338 999.835C706.571 1000.35 704.859 1000.01 704.859 998.295Z" fill="#CACACB"/>
<path d="M718.555 995.042C718.555 992.474 719.582 992.303 724.547 994.186C727.458 995.384 727.458 995.555 723.178 996.411C719.925 997.096 718.555 996.583 718.555 995.042Z" fill="#CACACB"/>
<path d="M730.539 991.618C730.539 988.879 733.621 988.536 737.045 990.762C738.757 991.789 738.243 992.474 734.99 992.987C731.909 993.672 730.539 993.159 730.539 991.618Z" fill="#CACACB"/>
<path d="M740.811 988.022C740.811 985.626 743.379 985.283 748.515 987.338C751.426 988.536 751.083 988.879 746.29 989.563C742.523 990.077 740.811 989.734 740.811 988.022Z" fill="#CACACB"/>
<path d="M406.971 984.941C406.971 979.805 407.485 979.805 413.99 983.571C420.496 987.509 420.325 989.221 412.963 989.221C407.656 989.221 406.971 988.707 406.971 984.941Z" fill="#CACACB"/>
<path d="M191.259 979.805C187.15 975.525 184.069 972.101 184.582 972.101C185.096 972.101 188.862 975.525 192.971 979.805C197.08 984.085 200.162 987.509 199.648 987.509C199.134 987.509 195.368 984.085 191.259 979.805Z" fill="#CACACB"/>
<path d="M769.23 978.093C768.717 976.552 769.23 975.525 770.771 975.525C773.51 975.525 774.195 978.264 771.798 979.634C770.942 980.147 769.915 979.463 769.23 978.093Z" fill="#CACACB"/>
<path d="M383.003 971.245C383.003 966.109 383.517 966.109 390.022 969.875C396.528 973.813 396.357 975.525 388.995 975.525C383.688 975.525 383.003 975.011 383.003 971.245Z" fill="#CACACB"/>
<path d="M1020.72 968.677C1022.44 966.794 1024.66 965.253 1025.52 965.253C1026.54 965.253 1025.86 966.794 1024.15 968.677C1022.44 970.56 1020.21 972.101 1019.35 972.101C1018.33 972.101 1019.01 970.56 1020.72 968.677Z" fill="#CACACB"/>
<path d="M843.531 969.019C843.531 967.65 852.434 961.829 854.488 961.829C855.002 961.829 855.515 963.712 855.515 966.109C855.515 969.875 854.83 970.389 849.523 970.389C846.27 970.389 843.531 969.704 843.531 969.019Z" fill="#CACACB"/>
<path d="M369.307 961.829V956.693L375.299 960.459C382.832 965.424 382.832 966.965 375.299 966.965C369.821 966.965 369.307 966.623 369.307 961.829Z" fill="#CACACB"/>
<path d="M808.435 877.941C808.435 832.231 808.607 813.57 808.778 836.511C809.12 859.28 809.12 896.602 808.778 919.543C808.607 942.312 808.435 923.651 808.435 877.941Z" fill="#CACACB"/>
<path d="M816.31 957.549C816.824 957.207 824.185 952.584 832.917 947.277L848.496 937.861H928.104C971.76 937.861 1008.57 937.519 1009.94 937.005C1011.82 936.32 1012.16 910.64 1011.65 791.827C1011.31 661.031 1010.96 647.677 1008.57 648.019C1006.68 648.191 1006.34 647.677 1007.54 646.478C1008.57 645.451 1010.62 645.109 1011.99 645.622C1014.22 646.478 1014.56 663.427 1014.73 791.314C1014.73 932.725 1014.73 935.978 1011.48 937.861C1009.25 938.888 980.149 939.573 928.275 939.573H848.325L833.088 948.989C819.905 957.207 813.571 960.459 816.31 957.549Z" fill="#CACACB"/>
<path d="M352.872 952.584C352.358 951.215 352.187 948.818 352.53 947.277C352.872 945.051 354.242 945.565 359.035 949.674L365.027 954.81L359.378 954.981C356.125 954.981 353.386 953.954 352.872 952.584Z" fill="#CACACB"/>
<path d="M325.309 925.534C318.632 918.002 318.974 916.461 326.165 922.11C330.102 925.363 333.355 928.274 333.355 928.616C333.355 930.67 328.39 928.787 325.309 925.534Z" fill="#CACACB"/>
<path d="M287.645 867.155C289.014 862.875 304.251 855.171 304.251 858.766C304.251 859.794 300.314 862.533 295.52 864.758C290.898 867.155 287.131 868.354 287.645 867.155Z" fill="#CACACB"/>
<path d="M329.418 788.403C327.877 770.256 327.877 505.067 329.246 498.048L330.445 492.741L430.768 493.083L531.091 493.597L531.605 564.816L531.947 636.035L523.73 643.568C519.107 647.677 510.547 655.039 504.555 659.661C498.563 664.455 490.003 671.303 485.723 675.069C481.272 678.835 472.712 685.855 466.891 690.477C460.899 695.271 452.853 701.776 448.915 705.029C444.978 708.282 436.931 714.959 430.939 719.581C425.118 724.375 417.072 730.88 412.963 734.133C409.026 737.386 400.466 744.405 394.131 749.541C387.797 754.677 379.408 761.696 375.47 764.949C371.362 768.202 362.802 775.221 356.467 780.357C349.962 785.493 341.402 792.683 337.635 796.107L330.445 802.613L329.418 788.403Z" fill="#CACACB"/>
<path d="M715.816 727.798C713.248 724.374 711.878 722.149 713.077 722.834C715.302 724.203 722.664 734.133 721.466 734.133C720.952 734.133 718.555 731.222 715.816 727.798Z" fill="#CACACB"/>
<path d="M190.574 674.042C189.89 669.248 189.718 664.968 190.061 664.455C190.574 664.112 191.43 667.707 192.115 672.501C192.8 677.295 192.971 681.574 192.458 682.088C192.115 682.602 191.259 678.835 190.574 674.042Z" fill="#CACACB"/>
<path d="M187.15 644.938C186.466 637.405 186.294 630.728 186.637 630.386C187.15 629.872 188.006 635.693 188.691 643.397C189.376 651.101 189.547 657.606 189.034 658.12C188.691 658.634 187.664 652.642 187.15 644.938Z" fill="#CACACB"/>
<path d="M808.435 496.165C808.435 421.351 808.607 390.706 808.778 428.199C809.12 465.52 809.12 526.81 808.778 564.303C808.607 601.624 808.435 570.979 808.435 496.165Z" fill="#CACACB"/>
<path d="M816.139 629.016C816.139 628.674 818.536 626.619 821.275 624.565C824.186 622.511 826.411 621.312 826.411 621.826C826.411 622.168 824.186 624.223 821.275 626.277C818.536 628.331 816.139 629.53 816.139 629.016Z" fill="#CACACB"/>
<path d="M829.835 618.915C829.835 618.402 833.944 615.149 838.738 611.383C850.208 602.994 852.776 601.453 851.578 603.507C850.379 605.562 829.835 619.943 829.835 618.915Z" fill="#CACACB"/>
<path d="M43 598.885C43 588.099 43.1712 583.648 43.5136 589.127C43.856 594.434 43.856 603.336 43.5136 608.815C43.1712 614.122 43 609.671 43 598.885Z" fill="#CACACB"/>
<path d="M568.755 514.997C568.755 465.52 568.927 445.319 569.098 470.143C569.44 494.795 569.44 535.199 569.098 560.023C568.927 584.675 568.755 564.474 568.755 514.997Z" fill="#CACACB"/>
<path d="M854.488 600.939C855.858 598.714 865.787 591.352 865.787 592.551C865.787 593.064 862.877 595.461 859.453 598.2C856.029 600.768 853.803 602.138 854.488 600.939Z" fill="#CACACB"/>
<path d="M582.794 593.92C585.362 590.154 588.614 587.072 589.813 586.901C593.579 586.901 592.038 589.64 584.848 595.29L578 600.939L582.794 593.92Z" fill="#CACACB"/>
<path d="M768.032 596.146C766.32 594.091 766.32 593.578 768.203 594.091C769.573 594.434 771.113 592.55 771.798 589.469C772.997 584.333 772.997 584.333 773.168 590.667C773.339 597.858 771.285 600.083 768.032 596.146Z" fill="#CACACB"/>
<path d="M868.184 590.667C869.554 588.442 879.483 581.08 879.483 582.279C879.483 582.792 876.573 585.189 873.149 587.928C869.725 590.496 867.499 591.866 868.184 590.667Z" fill="#CACACB"/>
<path d="M602.653 577.656C604.707 574.403 607.447 571.664 608.645 571.493C612.411 571.493 610.871 574.403 604.707 579.026L598.715 583.648L602.653 577.656Z" fill="#CACACB"/>
<path d="M882.736 579.539C885.133 576.458 891.467 572.349 891.467 573.89C891.467 574.403 888.899 576.458 885.989 578.512C881.88 581.423 881.024 581.594 882.736 579.539Z" fill="#CACACB"/>
<path d="M772.483 506.437C772.483 466.376 772.654 450.112 772.826 469.971C773.168 490.002 773.168 522.872 772.826 542.731C772.654 562.762 772.483 546.498 772.483 506.437Z" fill="#CACACB"/>
<path d="M186.294 563.447C186.294 558.653 186.637 554.202 187.493 553.688C188.178 553.346 188.52 556.085 188.178 560.023C187.322 571.664 186.466 573.034 186.294 563.447Z" fill="#CACACB"/>
<path d="M896.432 569.267C898.829 566.186 905.163 562.077 905.163 563.618C905.163 564.131 902.595 566.186 899.685 568.24C895.576 571.151 894.72 571.322 896.432 569.267Z" fill="#CACACB"/>
<path d="M620.458 563.104C623.026 559.338 626.278 556.256 627.477 556.085C631.243 556.085 629.702 558.824 622.512 564.474L615.664 570.123L620.458 563.104Z" fill="#CACACB"/>
<path d="M908.587 560.536C908.587 560.194 910.984 558.139 913.723 556.085C916.634 554.031 918.859 552.832 918.859 553.346C918.859 553.688 916.634 555.743 913.723 557.797C910.984 559.851 908.587 561.05 908.587 560.536Z" fill="#CACACB"/>
<path d="M44.3696 547.525C44.3696 544.272 44.712 542.903 45.2256 544.615C45.568 546.155 45.568 548.895 45.2256 550.607C44.712 552.147 44.3696 550.778 44.3696 547.525Z" fill="#CACACB"/>
<path d="M640.317 546.84C642.371 543.587 645.11 540.848 646.309 540.677C650.075 540.677 648.534 543.587 642.371 548.21L636.379 552.832L640.317 546.84Z" fill="#CACACB"/>
<path d="M934.61 541.362C937.52 537.938 958.235 522.872 958.235 524.071C958.235 524.584 952.243 529.378 945.053 534.685C937.691 540.163 933.069 543.245 934.61 541.362Z" fill="#CACACB"/>
<path d="M658.122 532.288C660.69 528.522 663.942 525.44 665.141 525.269C668.907 525.269 667.367 528.008 660.176 533.658L653.328 539.307L658.122 532.288Z" fill="#CACACB"/>
<path d="M961.488 521.16C963.714 518.421 970.219 514.141 970.219 515.511C970.219 515.853 967.651 517.907 964.741 520.133C961.145 522.701 959.947 523.043 961.488 521.16Z" fill="#CACACB"/>
<path d="M678.666 515.168C681.234 511.231 684.315 508.149 685.514 508.149C689.451 508.149 687.91 511.231 680.891 516.709L674.043 522.187L678.666 515.168Z" fill="#CACACB"/>
<path d="M975.184 511.059C977.581 507.978 983.915 503.869 983.915 505.41C983.915 505.923 981.347 507.978 978.437 510.032C974.328 512.943 973.472 513.114 975.184 511.059Z" fill="#CACACB"/>
<path d="M987.339 502.328C987.339 501.986 989.736 499.931 992.475 497.877C995.386 495.823 997.611 494.624 997.611 495.138C997.611 495.48 995.386 497.535 992.475 499.589C989.736 501.643 987.339 502.842 987.339 502.328Z" fill="#CACACB"/>
<path d="M1007.37 487.091C1011.99 482.983 1012.85 481.271 1011.99 477.675C1011.31 475.107 1009.6 471.512 1008.05 469.629C1006.51 467.575 1007.37 468.259 1010.11 470.827C1012.68 473.567 1014.73 476.991 1014.73 478.703C1014.73 481.613 1010.28 486.578 1004.46 490.173C1002.92 491.2 1004.29 489.659 1007.37 487.091Z" fill="#CACACB"/>
<path d="M982.203 437.101C980.491 435.047 980.491 434.362 982.374 433.677C986.483 432.307 1014.39 431.965 1013.53 433.335C1013.19 434.019 1005.83 434.533 997.269 434.533C983.744 434.533 982.032 434.875 983.915 437.101C985.114 438.471 985.627 439.669 985.114 439.669C984.771 439.669 983.402 438.471 982.203 437.101Z" fill="#CACACB"/>
<path d="M1011.31 396.527C1011.31 378.379 1011.99 362.458 1012.85 361.088C1013.7 359.89 1014.39 373.586 1014.56 394.13C1014.56 416.215 1014.05 429.397 1013.02 429.397C1011.99 429.397 1011.31 416.899 1011.31 396.527Z" fill="#CACACB"/>
<path d="M859.282 358.007C887.358 357.664 933.24 357.664 961.317 358.007C989.222 358.178 966.282 358.349 910.299 358.349C854.317 358.349 831.376 358.178 859.282 358.007Z" fill="#CACACB"/>
<path d="M359.035 240.221C359.035 239.879 365.37 234.229 373.245 227.895C395.33 209.576 393.275 210.775 393.275 216.938C393.275 221.731 392.762 222.245 388.139 222.245C383.859 222.245 383.003 222.93 383.003 226.525C383.003 229.949 382.147 230.805 378.723 230.805C375.813 230.805 374.443 231.661 374.443 233.887C374.443 238.509 371.019 241.077 364.685 241.077C361.603 241.077 359.035 240.735 359.035 240.221Z" fill="#CACACB"/>
<path d="M999.323 230.634V225.498L1004.46 229.093C1011.99 234.4 1012.16 235.941 1005.49 235.941C999.837 235.941 999.323 235.599 999.323 230.634Z" fill="#CACACB"/>
<path d="M1018.5 228.237C1016.27 226.011 1015.07 223.101 1015.59 222.074C1016.44 220.875 1018.33 221.903 1020.89 224.984C1027.4 233.202 1025.52 235.77 1018.5 228.237Z" fill="#CACACB"/>
<path d="M980.491 215.226V210.09L985.627 213.685C993.16 218.992 993.331 220.533 986.654 220.533C981.005 220.533 980.491 220.191 980.491 215.226Z" fill="#CACACB"/>
<path d="M999.323 203.927L984.771 188.861L999.837 203.413C1013.7 216.938 1015.59 218.821 1014.22 218.821C1014.05 218.821 1007.2 212.144 999.323 203.927Z" fill="#CACACB"/>
<path d="M194.683 214.883C194.683 214.712 200.675 208.72 208.037 201.701L221.219 188.861L208.379 202.215C196.566 214.37 194.683 216.253 194.683 214.883Z" fill="#CACACB"/>
<path d="M966.795 205.981C966.795 202.215 966.11 201.701 960.803 201.701C955.496 201.701 954.811 201.187 954.811 197.421C954.811 195.024 955.496 193.141 956.181 193.141C957.893 193.141 978.779 208.207 978.779 209.405C978.779 209.919 976.04 210.261 972.787 210.261C967.48 210.261 966.795 209.747 966.795 205.981Z" fill="#CACACB"/>
<path d="M430.939 186.635C430.939 185.266 439.842 179.445 441.896 179.445C442.41 179.445 442.923 181.328 442.923 183.725C442.923 187.491 442.238 188.005 436.931 188.005C433.678 188.005 430.939 187.32 430.939 186.635Z" fill="#CACACB"/>
<path d="M731.395 182.527C720.781 178.931 718.555 177.733 718.555 176.021C718.555 175.165 721.637 174.309 725.403 174.309C729.17 174.309 732.251 175.165 732.251 176.021C732.251 177.048 734.99 177.733 738.243 177.733C743.037 177.733 744.235 178.418 744.235 181.157C744.235 184.923 740.126 185.437 731.395 182.527Z" fill="#CACACB"/>
<path d="M927.419 180.301C927.419 175.165 927.933 175.165 934.438 178.931C940.944 182.869 940.773 184.581 933.411 184.581C928.104 184.581 927.419 184.067 927.419 180.301Z" fill="#CACACB"/>
<path d="M230.635 180.643C230.635 180.301 233.203 177.904 236.285 174.994L241.763 170.029L236.798 175.679C232.005 180.815 230.635 182.013 230.635 180.643Z" fill="#CACACB"/>
<path d="M689.109 173.111C687.397 172.768 686.027 171.227 686.027 169.858C686.027 168.146 688.253 167.461 693.731 167.461C700.237 167.461 701.435 167.975 701.435 170.885C701.435 173.453 700.408 174.309 696.813 174.138C694.074 173.967 690.65 173.624 689.109 173.111Z" fill="#CACACB"/>
<path d="M668.051 170.029C667.195 169.687 663.429 169.002 660.005 168.317C655.554 167.632 653.499 166.434 653.499 164.551C653.499 162.325 655.04 161.983 663.942 163.01C669.763 163.523 676.44 164.037 678.494 164.037C681.405 164.037 682.603 165.064 682.603 167.461C682.603 170.371 681.576 170.885 676.269 170.714C672.674 170.714 669.078 170.371 668.051 170.029Z" fill="#CACACB"/>
<path d="M617.205 166.263C615.493 165.92 614.123 164.379 614.123 163.01C614.123 161.127 617.376 160.613 630.387 160.613C645.453 160.613 646.651 160.784 646.651 164.037C646.651 167.119 645.624 167.461 633.469 167.29C626.107 167.119 618.746 166.776 617.205 166.263Z" fill="#CACACB"/>
<path d="M487.778 156.847C488.291 155.648 491.03 153.765 493.941 152.567C499.248 150.341 499.419 150.512 499.419 154.621C499.419 158.387 498.734 158.901 493.256 158.901C489.318 158.901 487.435 158.216 487.778 156.847Z" fill="#CACACB"/>
<path d="M555.915 132.536C555.915 130.311 560.709 128.085 565.845 128.085C566.872 128.085 567.899 129.626 567.899 131.509C567.899 134.248 566.701 134.933 561.907 134.933C557.97 134.933 555.915 134.077 555.915 132.536Z" fill="#CACACB"/>
<path d="M578.171 127.4C578.171 125.175 582.965 122.949 588.101 122.949C589.128 122.949 590.155 124.49 590.155 126.373C590.155 129.112 588.957 129.797 584.163 129.797C580.226 129.797 578.171 128.941 578.171 127.4Z" fill="#CACACB"/>
<path d="M631.243 118.84C631.243 117.642 632.955 116.101 635.181 115.416C642.2 113.533 644.939 114.218 644.939 117.813C644.939 120.723 643.741 121.237 638.091 121.237C633.469 121.237 631.243 120.552 631.243 118.84Z" fill="#CACACB"/>
<path d="M650.075 116.957C650.075 114.389 651.445 113.875 661.717 113.533C665.826 113.533 667.195 114.218 667.195 116.443C667.195 119.011 665.654 119.525 658.635 119.525C652.13 119.525 650.075 118.84 650.075 116.957Z" fill="#CACACB"/>
<path d="M750.741 104.631C752.795 104.288 755.877 104.288 757.589 104.631C759.13 105.144 757.418 105.487 753.651 105.315C749.885 105.315 748.515 104.973 750.741 104.631Z" fill="#CACACB"/>
<path d="M737.901 102.919C739.442 102.576 742.181 102.576 743.893 102.919C745.434 103.432 744.064 103.775 740.811 103.775C737.558 103.775 736.189 103.432 737.901 102.919Z" fill="#CACACB"/>
<path d="M713.077 101.207C717.014 100.864 723.178 100.864 726.773 101.207C730.197 101.549 726.944 101.891 719.411 101.891C711.878 101.891 708.968 101.549 713.077 101.207Z" fill="#CACACB"/>
<path d="M547.013 41.2866C549.067 40.9442 552.149 40.9442 553.861 41.2866C555.402 41.8002 553.69 42.1426 549.923 41.9714C546.157 41.9714 544.787 41.629 547.013 41.2866Z" fill="#CACACB"/>
<path d="M659.491 1085.78C640.488 1084.58 604.878 1079.79 584.163 1075.51C539.48 1066.6 482.128 1044.69 446.69 1023.12C440.869 1019.52 435.733 1016.61 435.39 1016.61C432.994 1016.61 393.789 989.05 379.579 977.237C352.872 955.323 320.002 922.453 324.624 922.453C325.48 922.453 331.986 927.418 338.834 933.41C361.603 953.098 388.653 970.902 418.955 985.797C446.861 999.664 448.402 1000.35 470.315 1008.05C573.378 1044.86 685.856 1041.09 786.179 997.781C804.326 989.906 832.232 975.354 846.784 966.28L853.803 961.829H932.898L1012.16 962L1003.6 969.875C984.086 988.022 946.936 1013.36 915.435 1029.97C863.048 1057.7 814.427 1073.45 753.822 1082.52C736.874 1085.09 679.693 1086.98 659.491 1085.78Z" fill="#ADCF23"/>
<path d="M296.718 860.992C295.691 859.451 302.71 856.883 304.08 858.424C305.107 859.28 300.998 862.533 298.773 862.533C298.088 862.533 297.232 861.848 296.718 860.992Z" fill="#ADCF23"/>
<path d="M319.659 280.795C319.659 278.056 367.595 232.346 384.715 218.65C453.538 163.694 537.597 128.256 625.251 116.786C657.266 112.506 725.917 112.506 753.651 116.614C850.893 131.166 936.664 170.029 1007.88 232.346L1013.88 237.482L934.438 237.653H855.173L841.134 229.264C782.755 194.339 719.069 173.453 652.643 167.461C623.368 164.722 569.098 167.461 541.363 172.768C518.422 177.219 513.629 178.246 509.691 179.445C507.294 180.13 501.987 181.67 497.707 182.869C441.211 198.79 391.392 224.642 345.51 261.45C336.779 268.64 327.363 276.173 324.624 278.398C321.885 280.624 319.659 281.651 319.659 280.795Z" fill="#ADCF23"/>
</svg>
