<?xml version="1.0" standalone="no"?>
<!DOCTYPE svg PUBLIC "-//W3C//DTD SVG 20010904//EN"
 "http://www.w3.org/TR/2001/REC-SVG-20010904/DTD/svg10.dtd">
<svg version="1.0" xmlns="http://www.w3.org/2000/svg"
 width="1201.000000pt" height="1201.000000pt" viewBox="0 0 1201.000000 1201.000000"
 preserveAspectRatio="xMidYMid meet">
<metadata>
Created by potrace 1.14, written by Peter Selinger 2001-2017
</metadata>
<g transform="translate(0.000000,1201.000000) scale(0.100000,-0.100000)"
fill="#000000" stroke="none">
<path d="M5475 11590 c2 -3 -18 -5 -43 -6 -243 -3 -548 -60 -980 -185 -190
-55 -522 -177 -672 -246 -30 -14 -80 -37 -110 -51 -139 -63 -308 -151 -494
-257 -128 -72 -336 -211 -485 -323 -91 -69 -170 -129 -176 -136 -7 -6 -31 -27
-56 -46 -173 -138 -497 -457 -659 -650 -30 -36 -58 -67 -61 -70 -35 -29 -266
-336 -366 -485 -75 -113 -211 -332 -226 -365 -4 -8 -17 -31 -28 -50 -23 -37
-187 -362 -212 -420 -80 -184 -139 -336 -198 -512 -41 -123 -123 -416 -142
-508 -2 -14 -12 -58 -21 -98 -9 -40 -18 -91 -21 -113 -3 -23 -7 -44 -9 -48 -2
-3 -7 -30 -10 -59 -3 -29 -7 -56 -9 -60 -3 -4 -7 -34 -11 -67 -3 -33 -8 -69
-10 -81 -2 -12 -7 -57 -11 -100 -4 -43 -10 -83 -12 -88 -22 -36 -20 -1068 2
-1146 2 -8 6 -44 10 -79 10 -106 33 -252 70 -436 175 -873 565 -1698 1136
-2405 42 -52 87 -106 99 -120 12 -14 46 -54 75 -90 85 -105 412 -421 580 -560
50 -41 92 -77 95 -80 3 -4 23 -19 45 -36 22 -16 46 -35 53 -42 15 -13 203
-150 230 -167 9 -6 69 -45 132 -86 164 -107 367 -222 577 -328 100 -50 184
-91 186 -91 3 0 38 -15 79 -34 153 -71 481 -191 628 -231 47 -12 115 -32 151
-43 36 -11 81 -23 100 -26 19 -3 66 -12 104 -22 87 -20 247 -49 385 -69 58 -9
119 -18 135 -20 106 -16 217 -20 605 -20 418 0 771 9 855 21 39 6 480 89 521
99 253 59 643 182 789 250 17 7 68 29 115 48 180 73 419 189 522 254 21 12 40
23 42 23 8 0 298 182 396 249 103 70 346 248 370 272 8 8 40 34 70 59 30 25
78 68 108 95 30 28 65 57 78 65 30 18 375 367 427 431 63 78 39 75 -48 -6 -27
-26 -70 -63 -94 -83 -24 -21 -49 -42 -55 -47 -6 -6 -31 -26 -56 -45 -25 -19
-49 -38 -55 -43 -328 -258 -798 -523 -1223 -691 -177 -69 -176 -69 -182 -71
-3 0 -54 -17 -115 -37 -252 -83 -545 -152 -775 -183 -25 -3 -52 -8 -60 -10 -8
-2 -46 -7 -85 -11 -38 -3 -72 -7 -75 -9 -3 -2 -52 -6 -110 -10 -58 -4 -123 -9
-145 -11 -53 -4 -529 -4 -580 0 -22 2 -82 7 -134 11 -52 4 -102 8 -111 10 -10
2 -53 6 -96 10 -43 4 -81 9 -84 10 -3 2 -26 6 -50 9 -25 4 -56 9 -70 11 -14 3
-41 7 -60 10 -699 113 -1522 473 -2105 919 -97 75 -94 72 -284 231 -217 182
-521 510 -730 789 -349 466 -633 1040 -782 1586 -7 25 -14 50 -15 55 -9 30
-67 278 -75 320 -15 78 -39 212 -44 250 -2 19 -7 50 -10 67 -6 38 -12 89 -21
173 -3 33 -7 71 -10 85 -24 152 -24 621 1 865 8 76 16 150 20 175 2 14 6 48
10 75 7 58 9 70 30 190 23 135 25 147 35 185 5 19 11 47 14 61 2 14 16 70 31
125 15 54 28 104 29 111 1 7 5 16 9 19 4 4 7 15 7 24 0 44 124 393 205 575 7
17 23 53 35 80 66 150 142 304 170 345 9 14 40 67 69 119 109 195 295 458 485
685 103 124 414 442 521 533 33 29 71 61 85 73 14 12 40 34 59 48 19 15 39 32
45 37 69 65 435 314 601 410 201 116 570 295 700 340 28 9 62 23 77 31 14 8
34 14 45 14 10 0 32 7 48 16 17 9 44 18 60 20 17 2 53 13 80 24 28 11 75 26
105 34 30 9 89 25 130 36 108 30 396 86 562 110 79 12 154 23 167 25 123 21
947 22 1058 1 10 -2 47 -7 83 -11 36 -4 67 -8 70 -10 3 -2 33 -7 65 -10 33 -4
62 -9 65 -10 3 -2 26 -6 50 -10 25 -4 77 -13 115 -22 39 -8 81 -17 95 -19 153
-30 490 -126 669 -190 227 -82 581 -253 850 -409 48 -28 182 -113 221 -140 25
-18 67 -47 95 -66 27 -19 55 -38 61 -44 7 -5 24 -19 40 -30 58 -41 281 -228
331 -278 56 -55 74 -58 48 -8 -18 36 -280 303 -434 442 -57 52 -109 99 -115
104 -143 135 -490 387 -761 552 -317 194 -798 416 -1140 526 -115 37 -357 107
-435 125 -25 6 -58 14 -75 18 -35 8 -33 8 -110 24 -33 7 -67 14 -75 16 -8 1
-67 12 -130 23 -63 12 -142 24 -175 27 -33 3 -71 8 -85 11 -30 8 -1230 11
-1225 3z"/>
<path d="M6564 10871 c-2 -2 -48 -5 -103 -7 -55 -1 -104 -5 -109 -7 -4 -3 -37
-9 -72 -13 -36 -4 -72 -8 -80 -9 -31 -4 -116 -18 -135 -21 -11 -2 -70 -13
-130 -23 -61 -11 -123 -24 -138 -30 -15 -6 -27 -8 -27 -6 0 2 -12 0 -27 -6
-15 -6 -46 -13 -68 -16 -54 -7 -409 -123 -577 -189 -76 -30 -140 -54 -143 -54
-8 0 -371 -182 -440 -220 -33 -18 -77 -42 -97 -52 -46 -23 -351 -226 -455
-304 -157 -118 -280 -221 -374 -314 -53 -52 -158 -156 -234 -230 -131 -129
-166 -170 -147 -170 5 0 20 9 33 21 323 277 623 483 940 647 113 58 181 90
374 172 64 27 260 94 380 130 141 42 157 46 198 55 48 10 73 16 97 20 14 3 48
10 75 16 131 27 236 43 345 54 36 3 83 8 105 10 71 7 288 18 365 18 263 -1
415 -7 485 -20 44 -8 114 -17 155 -19 41 -3 95 -11 120 -19 25 -7 70 -15 100
-18 65 -6 205 -39 310 -74 41 -13 88 -26 104 -28 55 -8 346 -112 463 -166 24
-10 46 -19 49 -19 7 0 343 -168 394 -197 19 -11 82 -49 140 -84 l105 -63 793
-1 c435 0 792 1 792 2 0 9 -43 50 -90 85 -30 23 -62 48 -71 57 -36 36 -107 90
-218 169 -13 9 -29 22 -36 29 -21 20 -304 203 -314 203 -5 0 -14 7 -21 16 -8
8 -30 23 -49 33 -20 10 -115 59 -211 109 -96 49 -224 111 -285 137 -60 26
-128 55 -150 65 -22 10 -128 47 -235 83 -165 55 -241 78 -340 103 -8 2 -33 8
-55 14 -22 6 -60 15 -84 21 -23 5 -59 13 -80 18 -20 6 -56 13 -81 16 -24 4
-47 8 -50 10 -7 5 -248 43 -310 49 -147 16 -873 30 -886 17z"/>
<path d="M8366 8433 c-1 -1 -60 -3 -131 -4 -72 -1 -135 -5 -141 -11 -15 -11
-16 -129 -16 -1378 0 -1100 2 -1327 11 -1353 6 -16 13 -13 66 22 77 51 473
342 1042 766 89 66 250 185 358 265 108 80 230 171 270 203 40 31 77 57 82 57
5 0 25 15 44 34 19 18 52 45 74 58 54 34 104 83 116 115 12 31 14 28 -126 203
-167 209 -191 249 -152 251 12 0 74 2 138 4 64 1 121 5 127 9 12 7 14 61 14
341 1 335 -2 392 -20 407 -12 10 -191 13 -884 13 -478 0 -871 -1 -872 -2z"/>
<path d="M6029 7762 l-337 -2 -3 -23 c-8 -42 -4 -1775 3 -1783 11 -10 66 29
213 151 148 121 142 117 251 205 45 36 141 114 215 175 74 60 141 115 149 122
13 10 119 98 175 145 91 77 261 208 268 208 13 0 48 -42 155 -183 155 -203
529 -683 573 -735 27 -33 34 -5 35 149 5 447 3 1423 -2 1479 -3 36 -6 71 -7
78 0 6 -5 13 -11 14 -19 3 -1326 3 -1677 0z"/>
<path d="M10947 7443 c-1 -1 -130 -3 -287 -5 -157 -1 -300 -5 -318 -8 l-33 -5
39 -60 c21 -33 62 -91 91 -129 41 -53 49 -71 40 -82 -6 -7 -63 -53 -128 -101
-64 -49 -121 -92 -127 -98 -7 -5 -118 -89 -249 -185 -130 -96 -375 -278 -543
-403 -169 -126 -316 -235 -327 -243 -47 -34 -354 -259 -392 -288 -23 -17 -52
-39 -65 -48 -12 -9 -140 -104 -284 -211 -143 -107 -289 -213 -323 -237 l-63
-42 -22 23 c-18 20 -123 150 -169 209 -7 9 -34 45 -62 80 -27 36 -54 70 -60
76 -5 7 -19 24 -30 40 -11 15 -29 39 -41 53 -12 14 -153 197 -314 406 -161
209 -308 395 -327 413 -31 31 -34 32 -60 18 -16 -8 -50 -33 -78 -56 -27 -23
-57 -47 -65 -53 -94 -76 -416 -342 -420 -347 -3 -3 -36 -30 -75 -60 -69 -54
-107 -85 -129 -105 -6 -6 -33 -28 -61 -50 -68 -55 -78 -63 -180 -147 -49 -40
-162 -132 -250 -203 -88 -71 -162 -132 -165 -135 -4 -5 -189 -156 -310 -253
-8 -7 -62 -50 -120 -97 -57 -47 -113 -92 -123 -100 -11 -8 -24 -20 -31 -25 -6
-6 -49 -42 -96 -80 -47 -39 -94 -78 -105 -87 -162 -135 -364 -300 -555 -453
-129 -104 -431 -349 -670 -545 -239 -195 -460 -374 -491 -398 -62 -47 -95 -80
-87 -87 7 -7 147 66 243 126 44 27 104 64 133 82 30 18 68 41 86 52 27 17 251
152 443 269 27 16 62 37 78 46 17 10 68 40 115 69 47 28 92 55 100 60 61 37
1148 692 1495 900 237 143 509 306 605 364 96 57 252 150 345 207 94 56 184
111 202 122 l31 19 94 -122 c51 -66 118 -153 149 -193 30 -39 210 -276 400
-526 189 -250 367 -479 395 -510 l52 -55 88 60 c49 32 105 71 124 86 19 14 85
61 145 103 61 43 119 84 130 92 11 8 218 155 461 327 243 172 546 386 674 477
128 91 257 182 286 202 88 62 136 96 429 303 319 226 332 235 475 335 58 41
107 77 110 80 14 17 221 150 233 150 8 0 43 -35 78 -77 84 -102 140 -163 149
-163 10 0 49 103 89 235 85 281 281 979 276 983 -5 5 -644 10 -648 5z"/>
<path d="M3328 7082 c-24 -3 -28 -9 -34 -50 -17 -101 -9 -2831 8 -3029 2 -20
10 -16 54 27 36 34 180 154 324 270 53 43 397 325 425 348 11 10 54 44 95 77
41 33 77 62 80 66 3 3 26 21 51 40 25 19 67 53 95 76 27 22 92 76 146 120 227
184 274 223 293 240 11 10 63 52 115 93 106 83 136 108 160 130 9 8 50 44 91
80 41 35 77 69 81 75 8 11 2 1410 -6 1423 -2 4 -404 9 -893 11 -488 1 -926 4
-973 5 -47 0 -97 0 -112 -2z"/>
<path d="M10095 5553 c-11 -3 -22 -8 -25 -12 -3 -4 -61 -45 -130 -92 -69 -47
-339 -238 -600 -424 -261 -186 -603 -430 -760 -541 -157 -112 -331 -234 -388
-271 -108 -72 -116 -83 -114 -157 1 -23 1 -79 1 -126 -2 -176 -2 -1161 0
-1305 0 -82 1 -165 1 -184 -1 -19 5 -38 11 -42 18 -11 97 31 302 159 l88 55
752 3 c414 1 781 5 817 8 46 5 70 12 81 25 14 17 15 154 13 1397 -1 759 -5
1395 -7 1414 -3 19 -1 43 4 52 6 11 4 22 -7 32 -8 9 -16 15 -17 15 -1 -1 -11
-4 -22 -6z"/>
<path d="M6535 5239 c-176 -100 -674 -399 -772 -463 -40 -26 -64 -49 -68 -65
-11 -45 -15 -375 -15 -1261 0 -815 5 -1450 13 -1495 5 -24 33 -29 212 -41 184
-12 508 -7 645 10 51 6 159 17 201 21 20 2 45 5 55 9 24 7 68 15 119 22 22 3
54 10 70 15 17 6 48 12 70 15 22 3 60 11 85 18 25 8 81 24 125 36 44 13 100
30 125 37 25 8 55 17 66 19 24 4 219 79 244 93 17 9 17 -3 21 1144 l2 647
-109 143 c-59 78 -167 219 -239 312 -72 94 -156 204 -187 245 -59 78 -209 274
-231 300 -6 9 -46 60 -87 115 -41 55 -79 105 -85 111 -5 7 -26 32 -45 58 -19
25 -40 45 -45 46 -6 0 -82 -41 -170 -91z"/>
<path d="M5116 4378 c-211 -122 -175 -101 -500 -296 -144 -86 -273 -163 -288
-172 -14 -8 -129 -77 -255 -153 -125 -76 -237 -144 -248 -150 -11 -7 -42 -26
-70 -43 -27 -17 -141 -86 -251 -153 -144 -86 -203 -128 -208 -144 -3 -12 -6
-60 -6 -105 0 -94 -10 -78 120 -192 35 -30 70 -62 78 -70 17 -17 116 -96 156
-125 16 -11 56 -41 90 -67 35 -25 112 -78 172 -117 60 -39 114 -74 120 -79 46
-32 202 -116 356 -191 200 -97 375 -165 578 -226 85 -26 190 -58 233 -71 93
-29 102 -29 113 -7 8 17 13 2081 6 2346 -2 64 -7 117 -11 117 -4 0 -87 -46
-185 -102z"/>
<path d="M3210 2813 c0 -30 317 -347 510 -512 110 -93 106 -89 230 -182 502
-376 1005 -623 1625 -801 77 -22 167 -44 200 -50 33 -5 68 -14 79 -20 10 -5
58 -14 106 -19 48 -5 98 -13 111 -18 13 -5 42 -11 64 -15 22 -3 67 -10 100
-16 33 -6 107 -13 165 -15 58 -3 128 -7 155 -11 77 -9 654 -2 765 9 30 3 87 8
125 12 39 3 79 7 90 9 11 2 42 7 68 10 27 4 56 9 65 11 10 1 58 10 107 19 669
124 1334 407 1920 819 119 84 273 205 335 263 25 23 56 52 69 63 l24 21 -805
-2 -805 -3 -35 -27 c-84 -64 -473 -268 -643 -337 -44 -17 -89 -36 -100 -41
-67 -32 -339 -120 -515 -167 -66 -18 -64 -18 -165 -37 -44 -9 -100 -20 -125
-26 -53 -11 -70 -14 -218 -34 -62 -9 -154 -19 -205 -22 -50 -3 -110 -7 -132
-10 -50 -4 -414 -4 -475 1 -25 2 -79 6 -120 9 -156 12 -349 42 -560 87 -92 19
-387 101 -439 121 -14 5 -82 30 -151 54 -150 53 -192 72 -425 190 -248 126
-302 156 -486 278 -115 77 -254 185 -367 285 -102 90 -142 119 -142 104z"/>
</g>
</svg>
